<?xml version="1.0" encoding="UTF-8" standalone="no"?>
<!-- Created with Inkscape (http://www.inkscape.org/) -->

<svg
   xmlns:dc="http://purl.org/dc/elements/1.1/"
   xmlns:cc="http://creativecommons.org/ns#"
   xmlns:rdf="http://www.w3.org/1999/02/22-rdf-syntax-ns#"
   xmlns:svg="http://www.w3.org/2000/svg"
   xmlns="http://www.w3.org/2000/svg"
   xmlns:sodipodi="http://sodipodi.sourceforge.net/DTD/sodipodi-0.dtd"
   xmlns:inkscape="http://www.inkscape.org/namespaces/inkscape"
   width="200"
   height="200"
   viewBox="0 0 52.916666 52.916666"
   version="1.1"
   id="svg8"
   inkscape:version="0.92.4 (5da689c313, 2019-01-14)"
   sodipodi:docname="hero.svg">
  <defs
     id="defs2" />
  <sodipodi:namedview
     id="base"
     pagecolor="#ffffff"
     bordercolor="#666666"
     borderopacity="1.0"
     inkscape:pageopacity="0.0"
     inkscape:pageshadow="2"
     inkscape:zoom="1.4"
     inkscape:cx="-4.84379"
     inkscape:cy="77.875522"
     inkscape:document-units="mm"
     inkscape:current-layer="layer1"
     showgrid="false"
     units="px"
     inkscape:window-width="1920"
     inkscape:window-height="1001"
     inkscape:window-x="-9"
     inkscape:window-y="-9"
     inkscape:window-maximized="1" />
  <metadata
     id="metadata5">
    <rdf:RDF>
      <cc:Work
         rdf:about="">
        <dc:format>image/svg+xml</dc:format>
        <dc:type
           rdf:resource="http://purl.org/dc/dcmitype/StillImage" />
        <dc:title />
      </cc:Work>
    </rdf:RDF>
  </metadata>
  <g
     inkscape:label="Layer 1"
     inkscape:groupmode="layer"
     id="layer1"
     transform="translate(0,-244.08334)">
    <path
       style="fill:#fefefe;fill-opacity:1;stroke:#cccccc;stroke-width:1.20479262;stroke-linecap:butt;stroke-linejoin:miter;stroke-miterlimit:4;stroke-dasharray:none;stroke-opacity:1"
       d="m 25.036839,246.4526 c -24.3942832,4.46152 -6.108509,27.20611 -13.251794,47.06177 7.690276,-4.79611 15.80016,1.21095 31.614996,0.0855 -6.576451,-18.53306 12.339242,-47.00473 -18.363202,-47.14733 z"
       id="path840"
       inkscape:connector-curvature="0"
       sodipodi:nodetypes="cccc" />
    <path
       style="opacity:0.92000002;fill:#260c0c;fill-opacity:1;stroke:#fff000;stroke-width:0;stroke-miterlimit:4;stroke-dasharray:none;stroke-opacity:0"
       id="path842"
       sodipodi:type="arc"
       sodipodi:cx="23.19829"
       sodipodi:cy="256.08408"
       sodipodi:rx="2.0316219"
       sodipodi:ry="2.2678571"
       sodipodi:start="0"
       sodipodi:end="6.2725737"
       d="m 25.229912,256.08408 a 2.0316219,2.2678571 0 0 1 -2.026232,2.26785 2.0316219,2.2678571 0 0 1 -2.036983,-2.25582 2.0316219,2.2678571 0 0 1 2.015424,-2.27982 2.0316219,2.2678571 0 0 1 2.047676,2.24372 l -2.031507,0.0241 z" />
    <path
       style="opacity:0.92000002;fill:#260c0c;fill-opacity:1;stroke:#fff000;stroke-width:0;stroke-miterlimit:4;stroke-dasharray:none;stroke-opacity:0"
       id="path842-3"
       sodipodi:type="arc"
       sodipodi:cx="31.372025"
       sodipodi:cy="256.08408"
       sodipodi:rx="2.0316219"
       sodipodi:ry="2.2678571"
       sodipodi:start="0"
       sodipodi:end="6.2725737"
       d="m 33.403646,256.08408 a 2.0316219,2.2678571 0 0 1 -2.026232,2.26785 2.0316219,2.2678571 0 0 1 -2.036983,-2.25582 2.0316219,2.2678571 0 0 1 2.015425,-2.27982 2.0316219,2.2678571 0 0 1 2.047676,2.24372 l -2.031507,0.0241 z" />
  </g>
</svg>
