<?xml version="1.0" encoding="UTF-8" standalone="no"?>
<!-- Created with Inkscape (http://www.inkscape.org/) -->

<svg
   xmlns:osb="http://www.openswatchbook.org/uri/2009/osb"
   xmlns:dc="http://purl.org/dc/elements/1.1/"
   xmlns:cc="http://creativecommons.org/ns#"
   xmlns:rdf="http://www.w3.org/1999/02/22-rdf-syntax-ns#"
   xmlns:svg="http://www.w3.org/2000/svg"
   xmlns="http://www.w3.org/2000/svg"
   xmlns:sodipodi="http://sodipodi.sourceforge.net/DTD/sodipodi-0.dtd"
   xmlns:inkscape="http://www.inkscape.org/namespaces/inkscape"
   width="200"
   height="200"
   viewBox="0 0 52.916666 52.916666"
   version="1.1"
   id="svg8"
   inkscape:version="0.92.3 (2405546, 2018-03-11)"
   sodipodi:docname="stones-grey.svg">
  <defs
     id="defs2">
    <linearGradient
       id="linearGradient1190"
       osb:paint="solid">
      <stop
         style="stop-color:#374548;stop-opacity:1;"
         offset="0"
         id="stop1188" />
    </linearGradient>
    <linearGradient
       id="linearGradient1180"
       osb:paint="gradient">
      <stop
         style="stop-color:#374548;stop-opacity:1;"
         offset="0"
         id="stop1176" />
      <stop
         style="stop-color:#374548;stop-opacity:0;"
         offset="1"
         id="stop1178" />
    </linearGradient>
  </defs>
  <sodipodi:namedview
     id="base"
     pagecolor="#ffffff"
     bordercolor="#666666"
     borderopacity="1.0"
     inkscape:pageopacity="0.0"
     inkscape:pageshadow="2"
     inkscape:zoom="1.4"
     inkscape:cx="137.51636"
     inkscape:cy="87.081656"
     inkscape:document-units="mm"
     inkscape:current-layer="layer1"
     showgrid="false"
     units="px"
     inkscape:window-width="1614"
     inkscape:window-height="774"
     inkscape:window-x="103"
     inkscape:window-y="134"
     inkscape:window-maximized="0"
     showguides="true"
     inkscape:guide-bbox="true">
    <sodipodi:guide
       position="50.380305,59.467469"
       orientation="0,1"
       id="guide839"
       inkscape:locked="false" />
    <sodipodi:guide
       position="74.461309,55.562499"
       orientation="1,0"
       id="guide841"
       inkscape:locked="false" />
    <sodipodi:guide
       position="74.461309,55.562499"
       orientation="1,0"
       id="guide975"
       inkscape:locked="false" />
    <sodipodi:guide
       position="64.011051,-12.428033"
       orientation="0,1"
       id="guide1123"
       inkscape:locked="false" />
  </sodipodi:namedview>
  <metadata
     id="metadata5">
    <rdf:RDF>
      <cc:Work
         rdf:about="">
        <dc:format>image/svg+xml</dc:format>
        <dc:type
           rdf:resource="http://purl.org/dc/dcmitype/StillImage" />
        <dc:title></dc:title>
      </cc:Work>
    </rdf:RDF>
  </metadata>
  <g
     inkscape:label="Layer 1"
     inkscape:groupmode="layer"
     id="layer1"
     transform="translate(0,-244.08334)">
    <rect
       style="opacity:1;fill:#1f241c;fill-opacity:1;fill-rule:nonzero;stroke:none;stroke-width:0.26325449;stroke-opacity:1"
       id="rect1140"
       width="52.936504"
       height="52.957245"
       x="-0.0075048399"
       y="244.22502" />
    <path
       style="fill:#374845;fill-opacity:1;stroke:#000000;stroke-width:0.19955179px;stroke-linecap:butt;stroke-linejoin:miter;stroke-opacity:0"
       d="m 14.845557,281.34982 c 3.016181,-2.19521 7.75019,2.33904 8.611071,4.65459 0.698036,1.63779 2.074364,7.30019 -4.148319,7.66352 -2.946694,-0.0277 -5.187679,-1.15979 -6.126069,-4.3306 -1.216253,-4.9723 -0.08599,-6.88368 1.663317,-7.98751 z"
       id="path3715-7"
       inkscape:connector-curvature="0"
       sodipodi:nodetypes="ccccc" />
    <path
       style="fill:#374548;fill-opacity:1;stroke:#000000;stroke-width:0.2937569px;stroke-linecap:butt;stroke-linejoin:miter;stroke-opacity:0"
       d="m 33.671222,258.43446 c -1.497765,-5.69687 -11.096951,-7.38522 -14.196911,-6.33702 -2.295796,0.632 -9.032607,4.08974 -2.158753,12.05667 3.436458,3.59114 7.059195,5.3123 11.025772,3.58183 5.924634,-3.02691 6.352348,-6.15133 5.329892,-9.30148 z"
       id="path3715-9"
       inkscape:connector-curvature="0"
       sodipodi:nodetypes="ccccc" />
    <path
       style="fill:#374548;fill-opacity:1;stroke:#000000;stroke-width:0.13302849px;stroke-linecap:butt;stroke-linejoin:miter;stroke-opacity:0"
       d="m 12.966994,245.28335 c 1.716621,-2.05888 5.893127,-0.83727 6.929573,0.21694 0.79586,0.72102 2.817017,3.50045 -1.498286,5.42352 -2.080569,0.7992 -3.869242,0.78693 -5.119144,-0.72312 -1.780228,-2.43861 -1.339187,-3.81772 -0.312143,-4.91734 z"
       id="path3715-1"
       inkscape:connector-curvature="0"
       sodipodi:nodetypes="ccccc" />
    <path
       style="fill:#374548;fill-opacity:1;stroke:#000000;stroke-width:0.17573681px;stroke-linecap:butt;stroke-linejoin:miter;stroke-opacity:0"
       d="m 33.849333,255.52624 c 0.08267,3.5177 5.451513,6.17495 7.406747,6.12305 1.427988,0.044 5.841033,-0.74264 2.935568,-6.50494 -1.506974,-2.65702 -3.382554,-4.27894 -5.93848,-3.99024 -3.879095,0.68378 -4.562941,2.39273 -4.403835,4.37213 z"
       id="path3715-1-1"
       inkscape:connector-curvature="0"
       sodipodi:nodetypes="ccccc" />
    <path
       style="fill:#374548;fill-opacity:1;stroke:#000000;stroke-width:0.10933486px;stroke-linecap:butt;stroke-linejoin:miter;stroke-opacity:0"
       d="m 31.221049,269.9969 c -1.148913,-2.07801 -3.944196,-0.84504 -4.637876,0.21897 -0.53266,0.7277 -1.885395,3.53295 1.002783,5.47388 1.392499,0.80663 2.589636,0.79424 3.42618,-0.72985 1.191484,-2.46124 0.896301,-3.85316 0.208913,-4.963 z"
       id="path3715-1-7"
       inkscape:connector-curvature="0"
       sodipodi:nodetypes="ccccc" />
    <path
       style="fill:#374548;fill-opacity:1;stroke:#000000;stroke-width:0.18976292px;stroke-linecap:butt;stroke-linejoin:miter;stroke-opacity:0"
       d="m 1.9580569,259.79082 c 2.5562533,-2.81343 8.7755641,-1.14411 10.3189541,0.29646 1.18513,0.98523 4.194873,4.7833 -2.231125,7.41113 -3.098211,1.09209 -5.7617598,1.07533 -7.6230111,-0.98815 -2.65097004,-3.33229 -1.9942071,-5.21682 -0.464818,-6.71944 z"
       id="path3715-1-1-8"
       inkscape:connector-curvature="0"
       sodipodi:nodetypes="ccccc" />
    <path
       style="fill:#9c8c92;fill-opacity:1;stroke:#000000;stroke-width:0.24043365px;stroke-linecap:butt;stroke-linejoin:miter;stroke-opacity:0"
       d="m 71.417646,237.66327 c -4.606311,-1.78299 -11.243276,3.23326 -12.33945,5.60562 -0.906633,1.68882 -2.513492,7.40154 6.680327,7.00057 4.33881,-0.38545 7.555969,-1.76674 8.702787,-4.98611 1.422314,-5.01742 -0.384705,-6.7518 -3.043664,-7.62008 z"
       id="path3715-1-1-4"
       inkscape:connector-curvature="0"
       sodipodi:nodetypes="ccccc" />
    <path
       style="fill:#374845;fill-opacity:1;stroke:#000000;stroke-width:0.15732838px;stroke-linecap:butt;stroke-linejoin:miter;stroke-opacity:0"
       d="m 51.555407,261.87222 c -1.945928,-2.60618 -6.680329,-1.25883 -7.855223,0.002 -0.902173,0.85915 -3.193315,4.21122 1.698426,6.74936 2.35849,1.06582 4.386096,1.1192 5.802959,-0.69616 2.018031,-2.94073 1.518075,-4.65929 0.353838,-6.05543 z"
       id="path3715-1-1-45"
       inkscape:connector-curvature="0"
       sodipodi:nodetypes="ccccc" />
    <path
       style="fill:#374548;fill-opacity:1;stroke:#000000;stroke-width:0.15026322px;stroke-linecap:butt;stroke-linejoin:miter;stroke-opacity:0"
       d="m 33.221362,266.32844 c 1.89354,-2.44314 6.500483,-1.18008 7.643748,0.002 0.877884,0.8054 3.107344,3.94777 -1.652702,6.32712 -2.294995,0.99914 -4.268015,1.04919 -5.646733,-0.6526 -1.963703,-2.75676 -1.477206,-4.36781 -0.344313,-5.67661 z"
       id="path3715-1-1-45-6"
       inkscape:connector-curvature="0"
       sodipodi:nodetypes="ccccc" />
    <path
       style="fill:#9b9bc0;fill-opacity:1;stroke:#000000;stroke-width:0.15724471px;stroke-linecap:butt;stroke-linejoin:miter;stroke-opacity:0"
       d="m -20.569411,256.1335 c 2.952709,1.41643 6.934657,-1.73474 7.537003,-3.31169 0.5079,-1.11741 1.310405,-4.95932 -4.440735,-5.07606 -2.707075,0.0792 -4.674981,0.88781 -5.278538,3.04263 -0.711742,3.37386 0.483753,4.63793 2.182398,5.34538 z"
       id="path3715-1-1-45-5"
       inkscape:connector-curvature="0"
       sodipodi:nodetypes="ccccc" />
    <path
       style="fill:#374845;fill-opacity:1;stroke:#000000;stroke-width:0.09881889px;stroke-linecap:butt;stroke-linejoin:miter;stroke-opacity:0"
       d="m 17.411568,267.01133 c -1.293773,-1.54647 -4.441496,-0.74697 -5.222639,9.1e-4 -0.599819,0.50981 -2.123113,2.49886 1.12922,4.00495 1.56807,0.63244 2.916147,0.66411 3.858166,-0.41309 1.341711,-1.74497 1.00931,-2.76474 0.235253,-3.59318 z"
       id="path3715-1-1-45-4"
       inkscape:connector-curvature="0"
       sodipodi:nodetypes="ccccc" />
    <path
       style="fill:#374548;fill-opacity:1;stroke:#000000;stroke-width:0.09630674px;stroke-linecap:butt;stroke-linejoin:miter;stroke-opacity:0"
       d="m 9.1059902,292.30638 c 1.2012148,-1.54209 4.1237468,-0.62711 4.8490048,0.16249 0.556907,0.54002 1.971223,2.62181 -1.048433,4.06217 -1.455888,0.59859 -2.707523,0.58941 -3.5821478,-0.54162 -1.245724,-1.82649 -0.937103,-2.85944 -0.218424,-3.68304 z"
       id="path3715-3"
       inkscape:connector-curvature="0"
       sodipodi:nodetypes="ccccc" />
    <path
       style="fill:#374548;fill-opacity:1;stroke:#000000;stroke-width:0.15732838px;stroke-linecap:butt;stroke-linejoin:miter;stroke-opacity:0"
       d="m 23.995151,272.61517 c -1.945928,-2.60618 -6.680329,-1.25883 -7.855223,0.002 -0.902173,0.85915 -3.193315,4.21122 1.698426,6.74936 2.35849,1.06582 4.386096,1.1192 5.802959,-0.69616 2.018032,-2.94073 1.518076,-4.65929 0.353838,-6.05543 z"
       id="path3715-1-1-45-0"
       inkscape:connector-curvature="0"
       sodipodi:nodetypes="ccccc" />
    <path
       style="fill:#374548;fill-opacity:1;stroke:#000000;stroke-width:0.15732838px;stroke-linecap:butt;stroke-linejoin:miter;stroke-opacity:0"
       d="m 10.521652,284.39503 c -1.9459279,-2.60618 -6.6803289,-1.25883 -7.8552229,0.002 -0.902173,0.85915 -3.193315,4.21122 1.698426,6.74936 2.35849,1.06582 4.386096,1.1192 5.8029589,-0.69616 2.018031,-2.94073 1.518075,-4.65929 0.353838,-6.05543 z"
       id="path3715-1-1-45-51"
       inkscape:connector-curvature="0"
       sodipodi:nodetypes="ccccc" />
    <path
       style="fill:#374548;fill-opacity:1;stroke:#000000;stroke-width:0.08297994px;stroke-linecap:butt;stroke-linejoin:miter;stroke-opacity:0"
       d="m 40.940062,280.11829 c -0.31841,-1.65953 -2.970149,-2.40961 -3.854293,-2.19978 -0.652379,0.11466 -2.594852,0.90622 -0.814556,3.36185 0.8969,1.11642 1.878649,1.70722 3.016999,1.32787 1.708054,-0.69218 1.88235,-1.5671 1.652019,-2.49024 z"
       id="path3715-1-1-45-4-1"
       inkscape:connector-curvature="0"
       sodipodi:nodetypes="ccccc" />
    <path
       style="fill:#374548;fill-opacity:1;stroke:#000000;stroke-width:0.09880847px;stroke-linecap:butt;stroke-linejoin:miter;stroke-opacity:0"
       d="m 9.8449251,276.00971 c 0.9383359,-2.07801 3.2212899,-0.84504 3.7878279,0.21897 0.435033,0.7277 1.539833,3.53295 -0.818988,5.47388 -1.137277,0.80663 -2.114997,0.79424 -2.798217,-0.72985 -0.9731044,-2.46124 -0.7320237,-3.85316 -0.1706229,-4.963 z"
       id="path3715-1-7-0"
       inkscape:connector-curvature="0"
       sodipodi:nodetypes="ccccc" />
    <path
       style="fill:#374548;fill-opacity:1;stroke:#000000;stroke-width:0.15026322px;stroke-linecap:butt;stroke-linejoin:miter;stroke-opacity:0"
       d="m 25.158744,278.28204 c 1.89354,-2.44314 6.500483,-1.18008 7.643748,0.002 0.877884,0.8054 3.107344,3.94777 -1.652702,6.32712 -2.294995,0.99914 -4.268015,1.04919 -5.646733,-0.6526 -1.963703,-2.75676 -1.477206,-4.36781 -0.344313,-5.67661 z"
       id="path3715-1-1-45-6-8"
       inkscape:connector-curvature="0"
       sodipodi:nodetypes="ccccc" />
    <path
       style="fill:#374548;fill-opacity:1;stroke:none;stroke-width:0.26458332px;stroke-linecap:butt;stroke-linejoin:miter;stroke-opacity:1"
       d="m -0.00750484,245.28335 -0.03914,12.91532 C 3.8681351,257.8061 7.8218963,257.6864 11.045039,252.45238 c 3.527459,-6.67347 -6.4361969,-6.88366 -11.05254384,-7.16903 z"
       id="path928"
       inkscape:connector-curvature="0"
       sodipodi:nodetypes="cccc" />
    <path
       style="fill:#374548;fill-opacity:1;stroke:none;stroke-width:0.22040923px;stroke-linecap:butt;stroke-linejoin:miter;stroke-opacity:1"
       d="m 52.934199,258.19872 -0.0052,-12.91537 c -2.715702,0.40669 -5.459136,0.54065 -7.682749,5.78627 -2.431189,6.68616 4.483674,6.86039 7.687928,7.1291 z"
       id="path928-6"
       inkscape:connector-curvature="0"
       sodipodi:nodetypes="cccc" />
    <path
       style="fill:#374845;fill-opacity:1;stroke:none;stroke-width:0.26458332px;stroke-linecap:butt;stroke-linejoin:miter;stroke-opacity:1"
       d="m 47.20388,297.00631 -8.461321,-0.007 c -0.197689,-1.42117 0.825973,-2.77637 2.27094,-4.00252 1.892024,-1.29449 6.330842,2.2728 6.190381,4.00944 z"
       id="path947"
       inkscape:connector-curvature="0"
       sodipodi:nodetypes="cccc" />
    <path
       style="fill:#374845;fill-opacity:1;stroke:none;stroke-width:0.26458332px;stroke-linecap:butt;stroke-linejoin:miter;stroke-opacity:1"
       d="m 47.203437,244.11787 -8.460878,-0.0304 c -0.184315,1.42297 0.852047,2.88541 2.308482,4.09792 1.904118,1.27664 6.309187,-2.33228 6.152396,-4.06752 z"
       id="path947-4"
       inkscape:connector-curvature="0"
       sodipodi:nodetypes="ccccc" />
    <path
       style="fill:#374548;stroke:none;stroke-width:0.25717559px;stroke-linecap:butt;stroke-linejoin:miter;stroke-opacity:1;fill-opacity:1"
       d="m 21.625125,244.08668 c -0.09156,4.7029 5.522872,8.01769 10.515886,7.94638 3.554532,-0.56326 5.425758,-3.07177 5.656392,-7.94559 z"
       id="path964"
       inkscape:connector-curvature="0"
       sodipodi:nodetypes="cccc" />
    <path
       style="fill:#374548;fill-opacity:1;stroke:none;stroke-width:0.23275951px;stroke-linecap:butt;stroke-linejoin:miter;stroke-opacity:1"
       d="m 21.625341,296.99996 c -0.09156,-3.85231 5.522872,-6.56757 10.515886,-6.50916 3.554532,0.46139 5.425758,2.5162 5.656392,6.50851 z"
       id="path964-6"
       inkscape:connector-curvature="0"
       sodipodi:nodetypes="cccc" />
    <path
       style="fill:#374548;fill-opacity:1;stroke:#000000;stroke-width:0.1330208px;stroke-linecap:butt;stroke-linejoin:miter;stroke-opacity:0"
       d="m 47.406196,284.38659 c -0.654433,-2.96677 -4.033864,-1.94487 -5.087935,-0.69803 -0.784009,0.84037 -3.047093,4.22875 -0.468999,7.38529 1.279703,1.35263 2.580468,1.59064 3.9201,-0.22869 1.990586,-2.97188 2.066292,-4.85838 1.636834,-6.45857 z"
       id="path3715-1-7-2"
       inkscape:connector-curvature="0"
       sodipodi:nodetypes="ccccc" />
    <path
       style="fill:#374548;fill-opacity:1;stroke:#000000;stroke-width:0.0621071px;stroke-linecap:butt;stroke-linejoin:miter;stroke-opacity:0"
       d="m 35.937767,274.60096 c -0.754855,-1.02056 -2.591403,-0.41502 -3.047163,0.10753 -0.349966,0.35739 -1.238736,1.73511 0.658846,2.68835 0.914895,0.39615 1.701434,0.39006 2.251057,-0.35845 0.782827,-1.20877 0.588887,-1.89237 0.13726,-2.43743 z"
       id="path3715-1-7-5"
       inkscape:connector-curvature="0"
       sodipodi:nodetypes="ccccc" />
    <path
       style="fill:#374845;fill-opacity:1;stroke:#000000;stroke-width:0.0621071px;stroke-linecap:butt;stroke-linejoin:miter;stroke-opacity:0"
       d="m 13.161705,255.1738 c -0.754855,-1.02056 -2.591403,-0.41502 -3.047163,0.10753 -0.3499657,0.35739 -1.2387354,1.73511 0.658846,2.68835 0.914895,0.39615 1.701434,0.39006 2.251057,-0.35845 0.782827,-1.20877 0.588887,-1.89237 0.13726,-2.43743 z"
       id="path3715-1-7-5-8"
       inkscape:connector-curvature="0"
       sodipodi:nodetypes="ccccc" />
    <path
       style="fill:#374548;fill-opacity:1;stroke:#000000;stroke-width:0.0621071px;stroke-linecap:butt;stroke-linejoin:miter;stroke-opacity:0"
       d="m 28.231399,286.48783 c -0.754854,-1.02056 -2.591403,-0.41502 -3.047163,0.10753 -0.349966,0.35739 -1.238736,1.73511 0.658846,2.68835 0.914895,0.39615 1.701435,0.39006 2.251057,-0.35845 0.782827,-1.20877 0.588888,-1.89237 0.13726,-2.43743 z"
       id="path3715-1-7-5-6"
       inkscape:connector-curvature="0"
       sodipodi:nodetypes="ccccc" />
    <path
       style="fill:#374548;fill-opacity:1;stroke:#000000;stroke-width:0.0730401px;stroke-linecap:butt;stroke-linejoin:miter;stroke-opacity:0"
       d="m 6.3710882,292.97242 c -0.9252685,-1.15153 -3.1764294,-0.46828 -3.7350802,0.12133 -0.4289732,0.40325 -1.5183889,1.95778 0.8075848,3.03335 1.1214386,0.44698 2.085544,0.44011 2.7592481,-0.40445 0.9595554,-1.3639 0.7218321,-2.13522 0.1682473,-2.75023 z"
       id="path3715-1-7-5-2"
       inkscape:connector-curvature="0"
       sodipodi:nodetypes="ccccc" />
    <path
       style="fill:#374548;fill-opacity:1;stroke:#000000;stroke-width:0.0744611px;stroke-linecap:butt;stroke-linejoin:miter;stroke-opacity:0"
       d="m 52.300203,284.12096 c -0.826951,-1.37372 -2.838904,-0.66352 -3.338193,8.2e-4 -0.38339,0.45286 -1.357045,2.21972 0.721771,3.55757 1.002276,0.5618 1.863936,0.58993 2.466053,-0.36694 0.857591,-1.55005 0.645127,-2.4559 0.150369,-3.1918 z"
       id="path3715-1-1-45-4-8"
       inkscape:connector-curvature="0"
       sodipodi:nodetypes="ccccc" />
    <path
       style="fill:#374845;fill-opacity:1;stroke:#000000;stroke-width:0.11772801px;stroke-linecap:butt;stroke-linejoin:miter;stroke-opacity:0"
       d="m 38.759045,284.72491 c -1.44878,-1.96008 -4.973629,-0.94675 -5.848359,0.002 -0.671685,0.64615 -2.377483,3.16721 1.264509,5.07612 1.75594,0.8016 3.26553,0.84174 4.320411,-0.52357 1.502462,-2.2117 1.130235,-3.50421 0.263439,-4.55423 z"
       id="path3715-1-1-45-0-4"
       inkscape:connector-curvature="0"
       sodipodi:nodetypes="ccccc" />
    <path
       style="fill:#374548;fill-opacity:1;stroke:#000000;stroke-width:0.04677732px;stroke-linecap:butt;stroke-linejoin:miter;stroke-opacity:0"
       d="m 38.007826,261.63816 c -0.505429,-0.86463 -1.735128,-0.35161 -2.040291,0.0911 -0.234327,0.30279 -0.829421,1.47001 0.441144,2.2776 0.612587,0.33563 1.13923,0.33047 1.507241,-0.30368 0.524158,-1.02408 0.394302,-1.60324 0.09191,-2.06502 z"
       id="path3715-1-7-5-7"
       inkscape:connector-curvature="0"
       sodipodi:nodetypes="ccccc" />
    <path
       style="fill:#374548;fill-opacity:1;stroke:#000000;stroke-width:0.04688641px;stroke-linecap:butt;stroke-linejoin:miter;stroke-opacity:0"
       d="m 40.327499,290.60559 c -0.592065,-0.74156 -2.032546,-0.30156 -2.390018,0.0781 -0.274493,0.25969 -0.971593,1.26076 0.51676,1.9534 0.717591,0.28785 1.334507,0.28343 1.765599,-0.26045 0.614004,-0.87832 0.461889,-1.37503 0.107659,-1.77108 z"
       id="path3715-1-7-5-24"
       inkscape:connector-curvature="0"
       sodipodi:nodetypes="ccccc"
       inkscape:transform-center-x="-16.305431"
       inkscape:transform-center-y="12.221607" />
    <path
       style="fill:#374548;fill-opacity:1;stroke:#000000;stroke-width:0.04677732px;stroke-linecap:butt;stroke-linejoin:miter;stroke-opacity:0"
       d="m 44.187737,249.29712 c -0.505429,-0.86463 -1.735128,-0.35161 -2.040291,0.0911 -0.234327,0.30279 -0.829421,1.47001 0.441144,2.2776 0.612587,0.33563 1.13923,0.33047 1.507241,-0.30368 0.524158,-1.02408 0.394302,-1.60324 0.09191,-2.06502 z"
       id="path3715-1-7-5-7-0"
       inkscape:connector-curvature="0"
       sodipodi:nodetypes="ccccc" />
    <path
       style="fill:#374548;fill-opacity:1;stroke:#000000;stroke-width:0.10118819px;stroke-linecap:butt;stroke-linejoin:miter;stroke-opacity:0"
       d="m 47.675712,290.67881 c 1.058161,-1.93251 3.632647,-0.78588 4.271534,0.20364 0.490585,0.67673 1.736468,3.28561 -0.923575,5.09064 -1.282505,0.75014 -2.385082,0.73865 -3.155547,-0.67875 -1.09737,-2.28891 -0.825503,-3.5834 -0.192412,-4.61553 z"
       id="path3715-3-6"
       inkscape:connector-curvature="0"
       sodipodi:nodetypes="ccccc" />
    <path
       style="fill:#374548;fill-opacity:1;stroke:none;stroke-width:0.27593029px;stroke-linecap:butt;stroke-linejoin:miter;stroke-opacity:1"
       d="m 40.830739,276.85135 c 1.00508,-8.08649 12.118042,-6.88084 12.118042,-6.88084 l 0.0374,11.32741 c -5.472922,0.0799 -12.354468,1.70817 -12.155445,-4.44657 z"
       id="path1121"
       inkscape:connector-curvature="0"
       sodipodi:nodetypes="cccc" />
    <path
       style="fill:#374548;fill-opacity:1;stroke:none;stroke-width:0.23957558px;stroke-linecap:butt;stroke-linejoin:miter;stroke-opacity:1"
       d="m 9.1382665,274.39394 c -0.7551413,8.1137 -9.10458275,6.90398 -9.10458275,6.90398 L 0.00558421,269.9324 c 4.11194119,-0.0801 9.28221539,-1.71392 9.13268459,4.46154 z"
       id="path1121-2"
       inkscape:connector-curvature="0"
       sodipodi:nodetypes="cccc" />
  </g>
</svg>
