<?xml version="1.0" encoding="UTF-8" standalone="no"?>
<!-- Created with Inkscape (http://www.inkscape.org/) -->

<svg
   xmlns:dc="http://purl.org/dc/elements/1.1/"
   xmlns:cc="http://creativecommons.org/ns#"
   xmlns:rdf="http://www.w3.org/1999/02/22-rdf-syntax-ns#"
   xmlns:svg="http://www.w3.org/2000/svg"
   xmlns="http://www.w3.org/2000/svg"
   xmlns:sodipodi="http://sodipodi.sourceforge.net/DTD/sodipodi-0.dtd"
   xmlns:inkscape="http://www.inkscape.org/namespaces/inkscape"
   width="200"
   height="200"
   viewBox="0 0 52.916666 52.916666"
   version="1.1"
   id="svg8"
   inkscape:version="0.92.4 (5da689c313, 2019-01-14)"
   sodipodi:docname="stones-multicolors.svg">
  <defs
     id="defs2" />
  <sodipodi:namedview
     id="base"
     pagecolor="#ffffff"
     bordercolor="#666666"
     borderopacity="1.0"
     inkscape:pageopacity="0.0"
     inkscape:pageshadow="2"
     inkscape:zoom="2.8"
     inkscape:cx="103.9347"
     inkscape:cy="111.9987"
     inkscape:document-units="mm"
     inkscape:current-layer="layer1"
     showgrid="false"
     units="px"
     inkscape:window-width="1084"
     inkscape:window-height="774"
     inkscape:window-x="1"
     inkscape:window-y="64"
     inkscape:window-maximized="0" />
  <metadata
     id="metadata5">
    <rdf:RDF>
      <cc:Work
         rdf:about="">
        <dc:format>image/svg+xml</dc:format>
        <dc:type
           rdf:resource="http://purl.org/dc/dcmitype/StillImage" />
        <dc:title></dc:title>
      </cc:Work>
    </rdf:RDF>
  </metadata>
  <g
     inkscape:label="Layer 1"
     inkscape:groupmode="layer"
     id="layer1"
     transform="translate(0,-244.08334)">
    <path
       style="fill:#9b9bc0;fill-opacity:1;stroke:#000000;stroke-width:0.27662018px;stroke-linecap:butt;stroke-linejoin:miter;stroke-opacity:0"
       d="m 3.0199233,247.24207 c 3.8705824,-3.94828 13.2876347,-1.60561 15.6245797,0.41604 1.79448,1.38265 6.351721,6.71273 -3.378287,10.40056 -4.691197,1.53261 -8.7242439,1.50909 -11.5424828,-1.38674 -4.01400159,-4.67643 -3.01955602,-7.32114 -0.7038099,-9.42986 z"
       id="path3715"
       inkscape:connector-curvature="0"
       sodipodi:nodetypes="ccccc" />
    <path
       style="fill:#9c8c92;fill-opacity:1;stroke:#000000;stroke-width:0.28039613px;stroke-linecap:butt;stroke-linejoin:miter;stroke-opacity:0"
       d="m 37.158065,280.74352 c 4.758176,-2.74742 12.22631,2.92745 13.58439,5.82548 1.101189,2.04978 3.272414,9.13659 -6.544177,9.59132 -4.648556,-0.0346 -8.183819,-1.45155 -9.664177,-5.41999 -1.918699,-6.22311 -0.135653,-8.6153 2.623964,-9.99681 z"
       id="path3715-7"
       inkscape:connector-curvature="0"
       sodipodi:nodetypes="ccccc" />
    <path
       style="fill:#8c9aac;fill-opacity:1;stroke:#000000;stroke-width:0.37062579px;stroke-linecap:butt;stroke-linejoin:miter;stroke-opacity:0"
       d="m 44.53061,258.9778 c -4.98855,-5.49939 -17.125595,-2.23638 -20.137537,0.57947 -2.312792,1.92583 -8.186331,9.34987 4.354061,14.48647 6.046189,2.13471 11.244129,2.10194 14.876381,-1.93153 5.173391,-6.51357 3.891713,-10.19727 0.907095,-13.13441 z"
       id="path3715-9"
       inkscape:connector-curvature="0"
       sodipodi:nodetypes="ccccc" />
    <path
       style="fill:#8c9aac;fill-opacity:1;stroke:#000000;stroke-width:0.16004321px;stroke-linecap:butt;stroke-linejoin:miter;stroke-opacity:0"
       d="m 25.398036,246.48286 c 2.036237,-2.51226 6.990361,-1.02164 8.219781,0.26471 0.944041,0.87977 3.341515,4.27125 -1.777249,6.61777 -2.467947,0.97519 -4.589652,0.96022 -6.072272,-0.88236 -2.111687,-2.97557 -1.588528,-4.65837 -0.37026,-6.00012 z"
       id="path3715-1"
       inkscape:connector-curvature="0"
       sodipodi:nodetypes="ccccc" />
    <path
       style="fill:#9c8c92;fill-opacity:1;stroke:#000000;stroke-width:0.17573681px;stroke-linecap:butt;stroke-linejoin:miter;stroke-opacity:0"
       d="m 49.530729,246.47947 c -2.379662,-2.59196 -8.169326,-1.05404 -9.606097,0.27311 -1.103258,0.90769 -3.90508,4.40676 2.076994,6.82773 2.88418,1.00613 5.363724,0.99068 7.096395,-0.91036 2.467836,-3.06997 1.856444,-4.80616 0.432708,-6.19048 z"
       id="path3715-1-1"
       inkscape:connector-curvature="0"
       sodipodi:nodetypes="ccccc" />
    <path
       style="fill:#8c9aac;fill-opacity:1;stroke:#000000;stroke-width:0.10933486px;stroke-linecap:butt;stroke-linejoin:miter;stroke-opacity:0"
       d="m 50.998994,273.60504 c -1.148913,-2.07801 -3.944196,-0.84504 -4.637876,0.21897 -0.53266,0.7277 -1.885395,3.53295 1.002783,5.47388 1.392499,0.80663 2.589636,0.79424 3.42618,-0.72985 1.191484,-2.46124 0.896301,-3.85316 0.208913,-4.963 z"
       id="path3715-1-7"
       inkscape:connector-curvature="0"
       sodipodi:nodetypes="ccccc" />
    <path
       style="fill:#8c9aac;fill-opacity:1;stroke:#000000;stroke-width:0.17968085px;stroke-linecap:butt;stroke-linejoin:miter;stroke-opacity:0"
       d="m 4.0745434,262.86805 c 2.7704752,-2.32738 9.5109826,-0.94645 11.1837136,0.24524 1.284448,0.81502 4.546416,3.95693 -2.4181,6.13077 -3.3578501,0.90342 -6.2446126,0.88956 -8.2618424,-0.81743 -2.8731296,-2.7566 -2.1613279,-4.31556 -0.5037712,-5.55858 z"
       id="path3715-1-1-8"
       inkscape:connector-curvature="0"
       sodipodi:nodetypes="ccccc" />
    <path
       style="fill:#9c8c92;fill-opacity:1;stroke:#000000;stroke-width:0.24043365px;stroke-linecap:butt;stroke-linejoin:miter;stroke-opacity:0"
       d="m 14.898946,283.29871 c -4.606311,-1.78299 -11.2432763,3.23326 -12.3394507,5.60562 -0.9066326,1.68882 -2.5134915,7.40154 6.680327,7.00057 4.3388107,-0.38545 7.5559697,-1.76674 8.7027877,-4.98611 1.422314,-5.01742 -0.384705,-6.7518 -3.043664,-7.62008 z"
       id="path3715-1-1-4"
       inkscape:connector-curvature="0"
       sodipodi:nodetypes="ccccc" />
    <path
       style="fill:#8c9aac;fill-opacity:1;stroke:#000000;stroke-width:0.15732838px;stroke-linecap:butt;stroke-linejoin:miter;stroke-opacity:0"
       d="m 30.441115,288.73281 c -1.945928,-2.60618 -6.680329,-1.25883 -7.855223,0.002 -0.902173,0.85915 -3.193315,4.21122 1.698426,6.74936 2.35849,1.06582 4.386096,1.1192 5.802959,-0.69616 2.018031,-2.94073 1.518075,-4.65929 0.353838,-6.05543 z"
       id="path3715-1-1-45"
       inkscape:connector-curvature="0"
       sodipodi:nodetypes="ccccc" />
    <path
       style="fill:#9b9bc0;fill-opacity:1;stroke:#000000;stroke-width:0.15026322px;stroke-linecap:butt;stroke-linejoin:miter;stroke-opacity:0"
       d="m 22.664216,277.55376 c 1.89354,-2.44314 6.500483,-1.18008 7.643748,0.002 0.877884,0.8054 3.107344,3.94777 -1.652702,6.32712 -2.294995,0.99914 -4.268015,1.04919 -5.646733,-0.6526 -1.963703,-2.75676 -1.477206,-4.36781 -0.344313,-5.67661 z"
       id="path3715-1-1-45-6"
       inkscape:connector-curvature="0"
       sodipodi:nodetypes="ccccc" />
    <path
       style="fill:#9b9bc0;fill-opacity:1;stroke:#000000;stroke-width:0.15724471px;stroke-linecap:butt;stroke-linejoin:miter;stroke-opacity:0"
       d="m 3.7521167,281.5241 c 2.952709,1.41643 6.9346573,-1.73474 7.5370033,-3.31169 0.5079,-1.11741 1.310405,-4.95932 -4.4407359,-5.07606 -2.7070752,0.0792 -4.6749804,0.88781 -5.278538,3.04263 -0.71174201,3.37386 0.4837534,4.63793 2.1823986,5.34538 z"
       id="path3715-1-1-45-5"
       inkscape:connector-curvature="0"
       sodipodi:nodetypes="ccccc" />
    <path
       style="fill:#9c8c92;fill-opacity:1;stroke:#000000;stroke-width:0.10325451px;stroke-linecap:butt;stroke-linejoin:miter;stroke-opacity:0"
       d="m 20.19641,271.90338 c -1.293773,-1.68841 -4.441496,-0.81553 -5.222639,10e-4 -0.599819,0.5566 -2.123113,2.72822 1.12922,4.37255 1.56807,0.69049 2.916147,0.72507 3.858166,-0.451 1.341711,-1.90514 1.00931,-3.01851 0.235253,-3.92299 z"
       id="path3715-1-1-45-4"
       inkscape:connector-curvature="0"
       sodipodi:nodetypes="ccccc" />
  </g>
</svg>
