<?xml version="1.0" encoding="UTF-8" standalone="no"?>
<!-- Created with Inkscape (http://www.inkscape.org/) -->

<svg
   xmlns:osb="http://www.openswatchbook.org/uri/2009/osb"
   xmlns:dc="http://purl.org/dc/elements/1.1/"
   xmlns:cc="http://creativecommons.org/ns#"
   xmlns:rdf="http://www.w3.org/1999/02/22-rdf-syntax-ns#"
   xmlns:svg="http://www.w3.org/2000/svg"
   xmlns="http://www.w3.org/2000/svg"
   xmlns:sodipodi="http://sodipodi.sourceforge.net/DTD/sodipodi-0.dtd"
   xmlns:inkscape="http://www.inkscape.org/namespaces/inkscape"
   width="200"
   height="200"
   viewBox="0 0 52.916666 52.916666"
   version="1.1"
   id="svg8"
   inkscape:version="0.92.3 (2405546, 2018-03-11)"
   sodipodi:docname="walls-grey-right.svg">
  <defs
     id="defs2">
    <linearGradient
       id="linearGradient1190"
       osb:paint="solid">
      <stop
         style="stop-color:#374548;stop-opacity:1;"
         offset="0"
         id="stop1188" />
    </linearGradient>
    <linearGradient
       id="linearGradient1180"
       osb:paint="gradient">
      <stop
         style="stop-color:#374548;stop-opacity:1;"
         offset="0"
         id="stop1176" />
      <stop
         style="stop-color:#374548;stop-opacity:0;"
         offset="1"
         id="stop1178" />
    </linearGradient>
  </defs>
  <sodipodi:namedview
     id="base"
     pagecolor="#ffffff"
     bordercolor="#666666"
     borderopacity="1.0"
     inkscape:pageopacity="0.0"
     inkscape:pageshadow="2"
     inkscape:zoom="2.8"
     inkscape:cx="64.266419"
     inkscape:cy="89.388689"
     inkscape:document-units="mm"
     inkscape:current-layer="layer1"
     showgrid="false"
     units="px"
     inkscape:window-width="1920"
     inkscape:window-height="1006"
     inkscape:window-x="0"
     inkscape:window-y="0"
     inkscape:window-maximized="1"
     showguides="true"
     inkscape:guide-bbox="true"
     inkscape:snap-grids="false"
     inkscape:snap-to-guides="false">
    <sodipodi:guide
       position="50.380305,59.467469"
       orientation="0,1"
       id="guide839"
       inkscape:locked="false" />
    <sodipodi:guide
       position="74.461309,55.562499"
       orientation="1,0"
       id="guide841"
       inkscape:locked="false" />
    <sodipodi:guide
       position="74.461309,55.562499"
       orientation="1,0"
       id="guide975"
       inkscape:locked="false" />
    <sodipodi:guide
       position="64.011051,-12.428033"
       orientation="0,1"
       id="guide1123"
       inkscape:locked="false" />
    <sodipodi:guide
       position="60.937451,73.499119"
       orientation="0,1"
       id="guide877"
       inkscape:locked="false" />
    <sodipodi:guide
       position="59.066565,64.144686"
       orientation="0,1"
       id="guide879"
       inkscape:locked="false" />
  </sodipodi:namedview>
  <metadata
     id="metadata5">
    <rdf:RDF>
      <cc:Work
         rdf:about="">
        <dc:format>image/svg+xml</dc:format>
        <dc:type
           rdf:resource="http://purl.org/dc/dcmitype/StillImage" />
        <dc:title />
      </cc:Work>
    </rdf:RDF>
  </metadata>
  <g
     inkscape:label="Layer 1"
     inkscape:groupmode="layer"
     id="layer1"
     transform="translate(0,-244.08334)">
    <rect
       style="opacity:1;fill:#094130;fill-opacity:1;fill-rule:nonzero;stroke:none;stroke-width:0.25344202;stroke-opacity:1"
       id="rect1140"
       width="52.936504"
       height="49.082989"
       x="-296.96475"
       y="-49.203987"
       transform="matrix(0,-1,-1,0,0,0)" />
    <path
       style="fill:#91c35c;fill-opacity:1;stroke:none;stroke-width:0.26998267px;stroke-linecap:butt;stroke-linejoin:miter;stroke-opacity:1"
       d="m 50.290664,296.95335 -10.01636,0.0984 v -25.08946 l 10.01636,-0.19678 z"
       id="path887"
       inkscape:connector-curvature="0" />
    <path
       style="fill:#91c35c;fill-opacity:1;stroke:none;stroke-width:0.26578715px;stroke-linecap:butt;stroke-linejoin:miter;stroke-opacity:1"
       d="m 50.290664,270.45416 -10.01636,0.0954 v -26.50895 h 10.01636 z"
       id="path889"
       inkscape:connector-curvature="0" />
    <path
       style="fill:#557124;fill-opacity:1;stroke:none;stroke-width:0.1015611px;stroke-linecap:butt;stroke-linejoin:miter;stroke-opacity:1"
       d="m 40.274304,297.05174 -1.35058,-0.0705 -0.0668,-24.82219 1.4174,-0.19678 z"
       id="path887-1"
       inkscape:connector-curvature="0"
       sodipodi:nodetypes="ccccc" />
    <path
       style="fill:#557124;fill-opacity:1;stroke:none;stroke-width:0.10449398px;stroke-linecap:butt;stroke-linejoin:miter;stroke-opacity:1"
       d="m 40.274304,244.04058 -1.35058,0.0746 -0.0668,26.27652 1.4174,0.20831 z"
       id="path887-1-1"
       inkscape:connector-curvature="0"
       sodipodi:nodetypes="ccccc" />
    <path
       style="fill:#91c35c;fill-opacity:0.47927467;stroke:none;stroke-width:0.16978028px;stroke-linecap:butt;stroke-linejoin:miter;stroke-opacity:1"
       d="m 28.825644,295.6532 c 0.2719,0.15145 0.54381,0.0661 0.81571,0.0959 l 6.12646,0.012 v -14.0178 l -7.02282,0.15733 -0.0182,12.85266 c -0.006,0.28054 0.016,0.57493 0.0989,0.89986 z"
       id="path887-3"
       inkscape:connector-curvature="0"
       sodipodi:nodetypes="ccccccc" />
    <path
       style="fill:#557124;fill-opacity:0.74352327;stroke:none;stroke-width:0.06386734px;stroke-linecap:butt;stroke-linejoin:miter;stroke-opacity:1"
       d="m 35.767814,295.76115 0.95595,-0.0394 0.0473,-13.86847 -1.00324,-0.10995 z"
       id="path887-1-4"
       inkscape:connector-curvature="0"
       sodipodi:nodetypes="ccccc" />
    <path
       style="fill:#91c35c;fill-opacity:0.47927467;stroke:none;stroke-width:0.18377082px;stroke-linecap:butt;stroke-linejoin:miter;stroke-opacity:1"
       d="m 28.668664,279.08017 7.08964,0.0644 v -16.42323 l -7.02282,0.18433 z"
       id="path887-3-0"
       inkscape:connector-curvature="0"
       sodipodi:nodetypes="ccccc" />
    <path
       style="fill:#557124;fill-opacity:0.74352327;stroke:none;stroke-width:0.06913025px;stroke-linecap:butt;stroke-linejoin:miter;stroke-opacity:1"
       d="m 35.758304,279.14458 0.95595,-0.0461 0.0473,-16.24827 -1.00324,-0.12881 z"
       id="path887-1-4-3"
       inkscape:connector-curvature="0"
       sodipodi:nodetypes="ccccc" />
    <path
       style="fill:#91c35c;fill-opacity:0.47927467;stroke:none;stroke-width:0.16978028px;stroke-linecap:butt;stroke-linejoin:miter;stroke-opacity:1"
       d="m 28.601854,260.71483 7.08964,0.055 v -14.01781 l -7.02282,0.15733 z"
       id="path887-3-9"
       inkscape:connector-curvature="0"
       sodipodi:nodetypes="ccccc" />
    <path
       style="fill:#557124;fill-opacity:0.74352327;stroke:none;stroke-width:0.06386734px;stroke-linecap:butt;stroke-linejoin:miter;stroke-opacity:1"
       d="m 35.691494,260.7698 0.95595,-0.0394 0.0473,-13.86848 -1.00324,-0.10994 z"
       id="path887-1-4-1"
       inkscape:connector-curvature="0"
       sodipodi:nodetypes="ccccc" />
    <path
       style="fill:#91c35c;fill-opacity:0.47927467;stroke:none;stroke-width:0.18488891px;stroke-linecap:butt;stroke-linejoin:miter;stroke-opacity:1"
       d="m 19.113784,288.367 7.08964,0.0652 v -16.62368 l -7.02282,0.18658 z"
       id="path887-3-96"
       inkscape:connector-curvature="0"
       sodipodi:nodetypes="ccccc" />
    <path
       style="fill:#557124;fill-opacity:0.74352327;stroke:none;stroke-width:0.06955085px;stroke-linecap:butt;stroke-linejoin:miter;stroke-opacity:1"
       d="m 26.203424,288.43219 0.95595,-0.0467 0.0473,-16.44659 -1.00324,-0.13038 z"
       id="path887-1-4-9"
       inkscape:connector-curvature="0"
       sodipodi:nodetypes="ccccc" />
    <path
       style="fill:#91c35c;fill-opacity:0.47927467;stroke:none;stroke-width:0.16978028px;stroke-linecap:butt;stroke-linejoin:miter;stroke-opacity:1"
       d="m 19.180604,269.00018 7.08964,0.055 v -14.0178 l -7.02282,0.15733 z"
       id="path887-3-3"
       inkscape:connector-curvature="0"
       sodipodi:nodetypes="ccccc" />
    <path
       style="fill:#557124;fill-opacity:0.74352327;stroke:none;stroke-width:0.06386734px;stroke-linecap:butt;stroke-linejoin:miter;stroke-opacity:1"
       d="m 26.270244,269.05515 0.95595,-0.0394 0.0473,-13.86847 -1.00324,-0.10994 z"
       id="path887-1-4-38"
       inkscape:connector-curvature="0"
       sodipodi:nodetypes="ccccc" />
    <path
       style="fill:#91c35c;fill-opacity:0.47927467;stroke:none;stroke-width:0.12936081px;stroke-linecap:butt;stroke-linejoin:miter;stroke-opacity:1"
       d="m 19.314234,252.05162 7.08964,0.0319 v -8.13786 l -7.02282,0.0913 z"
       id="path887-3-05"
       inkscape:connector-curvature="0"
       sodipodi:nodetypes="ccccc" />
    <path
       style="fill:#557124;fill-opacity:0.74352327;stroke:none;stroke-width:0.04866248px;stroke-linecap:butt;stroke-linejoin:miter;stroke-opacity:1"
       d="m 26.403874,252.08354 0.95595,-0.0229 0.0473,-8.05118 -1.00324,-0.0638 z"
       id="path887-1-4-6"
       inkscape:connector-curvature="0"
       sodipodi:nodetypes="ccccc" />
    <path
       style="fill:#91c35c;fill-opacity:0.47927467;stroke:none;stroke-width:0.11532234px;stroke-linecap:butt;stroke-linejoin:miter;stroke-opacity:1"
       d="m 19.343654,297.02627 7.08964,0.0254 v -6.46744 l -7.02282,0.0726 z"
       id="path887-3-6"
       inkscape:connector-curvature="0"
       sodipodi:nodetypes="ccccc" />
    <path
       style="fill:#557124;fill-opacity:0.74352327;stroke:none;stroke-width:0.04338155px;stroke-linecap:butt;stroke-linejoin:miter;stroke-opacity:1"
       d="m 26.433294,297.05164 0.95595,-0.0182 0.0473,-6.39854 -1.00324,-0.0507 z"
       id="path887-1-4-4"
       inkscape:connector-curvature="0"
       sodipodi:nodetypes="ccccc" />
    <path
       style="fill:#b9e224;fill-opacity:0.44818654;stroke:none;stroke-width:0.06386734px;stroke-linecap:butt;stroke-linejoin:miter;stroke-opacity:1"
       d="m 34.811864,295.7651 0.95595,-0.004 10e-6,-14.0178 -0.95595,0.0394 c 0,0 0.49003,0.54802 0.52013,1.01081 0.27134,4.17132 0.20292,9.1979 -0.10619,12.18925 -0.0454,0.43973 -0.63837,0.78231 -0.63837,0.78231 z"
       id="path887-1-4-0"
       inkscape:connector-curvature="0"
       sodipodi:nodetypes="ccccsscc" />
    <path
       style="fill:#b9e224;fill-opacity:0.44818654;stroke:none;stroke-width:0.06912892px;stroke-linecap:butt;stroke-linejoin:miter;stroke-opacity:1"
       d="m 34.802354,279.14852 0.95595,-0.005 10e-6,-16.4226 -0.95595,0.0461 c 0,0 0.49003,0.64204 0.52013,1.18421 0.27134,4.88693 0.20292,10.77584 -0.10619,14.28036 -0.0454,0.51516 -0.63837,0.91652 -0.63837,0.91652 z"
       id="path887-1-4-0-0"
       inkscape:connector-curvature="0"
       sodipodi:nodetypes="ccccsscc" />
    <path
       style="fill:#b9e224;fill-opacity:0.44818654;stroke:none;stroke-width:0.06386734px;stroke-linecap:butt;stroke-linejoin:miter;stroke-opacity:1"
       d="m 34.735544,260.7737 0.95595,-0.004 1e-5,-14.01781 -0.95595,0.0394 c 0,0 0.49003,0.54802 0.52013,1.01081 0.27134,4.17132 0.20292,9.19791 -0.10619,12.18925 -0.0454,0.43973 -0.63837,0.78231 -0.63837,0.78231 z"
       id="path887-1-4-0-4"
       inkscape:connector-curvature="0"
       sodipodi:nodetypes="ccccsscc" />
    <path
       style="fill:#b9e224;fill-opacity:0.44818654;stroke:none;stroke-width:0.06954928px;stroke-linecap:butt;stroke-linejoin:miter;stroke-opacity:1"
       d="m 25.247474,288.43619 0.95595,-0.005 1e-5,-16.62293 -0.95595,0.0467 c 0,0 0.49003,0.64987 0.52013,1.19866 0.27134,4.94653 0.20292,10.90728 -0.10619,14.45455 -0.0454,0.52145 -0.63837,0.92771 -0.63837,0.92771 z"
       id="path887-1-4-0-6"
       inkscape:connector-curvature="0"
       sodipodi:nodetypes="ccccsscc" />
    <path
       style="fill:#b9e224;fill-opacity:0.44818654;stroke:none;stroke-width:0.06386734px;stroke-linecap:butt;stroke-linejoin:miter;stroke-opacity:1"
       d="m 25.314294,269.05905 0.95595,-0.004 10e-6,-14.0178 -0.95595,0.0394 c 0,0 0.49003,0.54802 0.52013,1.0108 0.27134,4.17132 0.20292,9.19791 -0.10619,12.18926 -0.0454,0.43973 -0.63837,0.78231 -0.63837,0.78231 z"
       id="path887-1-4-0-2"
       inkscape:connector-curvature="0"
       sodipodi:nodetypes="ccccsscc" />
    <path
       style="fill:#b9e224;fill-opacity:0.44818654;stroke:none;stroke-width:0.06386734px;stroke-linecap:butt;stroke-linejoin:miter;stroke-opacity:1"
       d="m 25.447924,252.08754 0.95595,-0.004 1e-5,-14.0178 -0.95595,0.0394 c 0,0 0.49003,0.54802 0.52013,1.0108 0.27134,4.17132 0.20292,9.19791 -0.10619,12.18925 -0.0454,0.43973 -0.63837,0.78232 -0.63837,0.78232 z"
       id="path887-1-4-0-67"
       inkscape:connector-curvature="0"
       sodipodi:nodetypes="ccccsscc" />
    <path
       style="fill:#b9e224;fill-opacity:0.44818654;stroke:none;stroke-width:0.06386734px;stroke-linecap:butt;stroke-linejoin:miter;stroke-opacity:1"
       d="m 25.477344,304.606 0.95595,-0.004 10e-6,-14.0178 -0.95595,0.0394 c 0,0 0.49003,0.54802 0.52013,1.0108 0.27134,4.17132 0.20292,9.19791 -0.10619,12.18925 -0.0454,0.43973 -0.63837,0.78232 -0.63837,0.78232 z"
       id="path887-1-4-0-5"
       inkscape:connector-curvature="0"
       sodipodi:nodetypes="ccccsscc" />
    <path
       style="fill:#b9e29c;fill-opacity:0.68393782;stroke:none;stroke-width:0.11989258px;stroke-linecap:butt;stroke-linejoin:miter;stroke-opacity:1"
       d="m 42.150214,297.14253 -1.87587,-0.007 -2e-5,-25.1732 1.87587,0.0707 c 0,0 -0.96159,0.98413 -1.02065,1.8152 -0.53246,7.49087 -0.3982,16.51763 0.20837,21.88949 0.0891,0.78967 1.25269,1.40489 1.25269,1.40489 z"
       id="path887-1-4-0-0-6"
       inkscape:connector-curvature="0"
       sodipodi:nodetypes="ccccsscc" />
    <path
       style="fill:#b9e29c;fill-opacity:0.68235294;stroke:none;stroke-width:0.1303478px;stroke-linecap:butt;stroke-linejoin:miter;stroke-opacity:1"
       d="m 42.378184,270.55411 -2.10387,-0.007 -2e-5,-26.53061 2.10386,0.0745 c 0,0 -1.07846,1.0372 -1.1447,1.91308 -0.59717,7.8948 -0.44659,17.4083 0.2337,23.06983 0.0999,0.83225 1.40493,1.48064 1.40493,1.48064 z"
       id="path887-1-4-0-0-9"
       inkscape:connector-curvature="0"
       sodipodi:nodetypes="ccccsscc" />
    <path
       style="fill:#91c35c;fill-opacity:0.47927467;stroke:none;stroke-width:0.16978028px;stroke-linecap:butt;stroke-linejoin:miter;stroke-opacity:1"
       d="m 9.803954,246.1766 c 0.2719,-0.15145 0.54381,-0.0661 0.81571,-0.096 l 6.12646,-0.012 v 14.0178 l -7.02282,-0.15732 -0.0182,-12.85267 c -0.006,-0.28053 0.016,-0.57493 0.0989,-0.89986 z"
       id="path887-3-8"
       inkscape:connector-curvature="0"
       sodipodi:nodetypes="ccccccc" />
    <path
       style="fill:#557124;fill-opacity:0.74352327;stroke:none;stroke-width:0.06386734px;stroke-linecap:butt;stroke-linejoin:miter;stroke-opacity:1"
       d="m 16.746124,246.06865 0.95595,0.0394 0.0473,13.86847 -1.00324,0.10995 z"
       id="path887-1-4-7"
       inkscape:connector-curvature="0"
       sodipodi:nodetypes="ccccc" />
    <path
       style="fill:#91c35c;fill-opacity:0.47927467;stroke:none;stroke-width:0.18377082px;stroke-linecap:butt;stroke-linejoin:miter;stroke-opacity:1"
       d="m 9.646974,262.74963 7.08964,-0.0644 v 16.42323 l -7.02282,-0.18432 z"
       id="path887-3-0-2"
       inkscape:connector-curvature="0"
       sodipodi:nodetypes="ccccc" />
    <path
       style="fill:#557124;fill-opacity:0.74352327;stroke:none;stroke-width:0.06913025px;stroke-linecap:butt;stroke-linejoin:miter;stroke-opacity:1"
       d="m 16.736614,262.68523 0.95595,0.0461 0.0473,16.24827 -1.00324,0.12881 z"
       id="path887-1-4-3-8"
       inkscape:connector-curvature="0"
       sodipodi:nodetypes="ccccc" />
    <path
       style="fill:#91c35c;fill-opacity:0.47927467;stroke:none;stroke-width:0.16978028px;stroke-linecap:butt;stroke-linejoin:miter;stroke-opacity:1"
       d="m 9.580164,281.11498 7.08964,-0.055 v 14.0178 l -7.02282,-0.15733 z"
       id="path887-3-9-2"
       inkscape:connector-curvature="0"
       sodipodi:nodetypes="ccccc" />
    <path
       style="fill:#557124;fill-opacity:0.74352327;stroke:none;stroke-width:0.06386734px;stroke-linecap:butt;stroke-linejoin:miter;stroke-opacity:1"
       d="m 16.669804,281.06001 0.95595,0.0394 0.0473,13.86847 -1.00324,0.10994 z"
       id="path887-1-4-1-9"
       inkscape:connector-curvature="0"
       sodipodi:nodetypes="ccccc" />
    <path
       style="fill:#b9e224;fill-opacity:0.44818654;stroke:none;stroke-width:0.06386734px;stroke-linecap:butt;stroke-linejoin:miter;stroke-opacity:1"
       d="m 15.790174,246.0647 0.95595,0.004 1e-5,14.0178 -0.95595,-0.0394 c 0,0 0.49003,-0.54802 0.52013,-1.0108 0.27134,-4.17132 0.20292,-9.19791 -0.10619,-12.18925 -0.0454,-0.43973 -0.63837,-0.78232 -0.63837,-0.78232 z"
       id="path887-1-4-0-9"
       inkscape:connector-curvature="0"
       sodipodi:nodetypes="ccccsscc" />
    <path
       style="fill:#b9e224;fill-opacity:0.44818654;stroke:none;stroke-width:0.06912892px;stroke-linecap:butt;stroke-linejoin:miter;stroke-opacity:1"
       d="m 15.780664,262.68129 0.95595,0.005 10e-6,16.42259 -0.95595,-0.0461 c 0,0 0.49003,-0.64204 0.52013,-1.18421 0.27134,-4.88692 0.20292,-10.77583 -0.10619,-14.28035 -0.0454,-0.51517 -0.63837,-0.91653 -0.63837,-0.91653 z"
       id="path887-1-4-0-0-60"
       inkscape:connector-curvature="0"
       sodipodi:nodetypes="ccccsscc" />
    <path
       style="fill:#b9e224;fill-opacity:0.44818654;stroke:none;stroke-width:0.06386734px;stroke-linecap:butt;stroke-linejoin:miter;stroke-opacity:1"
       d="m 15.713854,281.05611 0.95595,0.004 10e-6,14.0178 -0.95595,-0.0394 c 0,0 0.49003,-0.54802 0.52013,-1.0108 0.27134,-4.17133 0.20292,-9.19791 -0.10619,-12.18925 -0.0454,-0.43974 -0.63837,-0.78232 -0.63837,-0.78232 z"
       id="path887-1-4-0-4-2"
       inkscape:connector-curvature="0"
       sodipodi:nodetypes="ccccsscc" />
    <path
       style="fill:#91c35c;fill-opacity:0.47927467;stroke:none;stroke-width:0.18005185px;stroke-linecap:butt;stroke-linejoin:miter;stroke-opacity:1"
       d="m 0.949544,252.68752 6.72353,-0.0652 v 16.62368 l -6.66016,-0.18657 z"
       id="path887-3-96-7"
       inkscape:connector-curvature="0"
       sodipodi:nodetypes="ccccc" />
    <path
       style="fill:#91c35c;fill-opacity:0.47927467;stroke:none;stroke-width:0.16533849px;stroke-linecap:butt;stroke-linejoin:miter;stroke-opacity:1"
       d="m 1.012914,272.05434 6.72353,-0.055 v 14.0178 l -6.66016,-0.15732 z"
       id="path887-3-3-6"
       inkscape:connector-curvature="0"
       sodipodi:nodetypes="ccccc" />
    <path
       style="fill:#91c35c;fill-opacity:0.47927467;stroke:none;stroke-width:0.12597647px;stroke-linecap:butt;stroke-linejoin:miter;stroke-opacity:1"
       d="m 1.139644,289.0029 6.72353,-0.0319 v 8.13787 l -6.66016,-0.0913 z"
       id="path887-3-05-1"
       inkscape:connector-curvature="0"
       sodipodi:nodetypes="ccccc" />
    <path
       style="fill:#91c35c;fill-opacity:0.47927467;stroke:none;stroke-width:0.11230528px;stroke-linecap:butt;stroke-linejoin:miter;stroke-opacity:1"
       d="m 1.167544,244.02825 6.72353,-0.0254 v 6.46744 l -6.66016,-0.0726 z"
       id="path887-3-6-3"
       inkscape:connector-curvature="0"
       sodipodi:nodetypes="ccccc" />
    <path
       style="fill:#b9e224;fill-opacity:0.44818654;stroke:none;stroke-width:0.06772973px;stroke-linecap:butt;stroke-linejoin:miter;stroke-opacity:1"
       d="m 6.766494,252.61833 0.90658,0.005 1e-5,16.62293 -0.90658,-0.0467 c 0,0 0.46472,-0.64986 0.49327,-1.19865 0.25733,-4.94654 0.19244,-10.90729 -0.10071,-14.45456 -0.043,-0.52145 -0.6054,-0.9277 -0.6054,-0.9277 z"
       id="path887-1-4-0-6-2"
       inkscape:connector-curvature="0"
       sodipodi:nodetypes="ccccsscc" />
    <path
       style="fill:#b9e224;fill-opacity:0.44818654;stroke:none;stroke-width:0.06219644px;stroke-linecap:butt;stroke-linejoin:miter;stroke-opacity:1"
       d="m 6.829864,271.99547 0.90658,0.004 1e-5,14.0178 -0.90658,-0.0394 c 0,0 0.46472,-0.54802 0.49327,-1.0108 0.25733,-4.17132 0.19244,-9.19791 -0.10071,-12.18925 -0.043,-0.43973 -0.6054,-0.78232 -0.6054,-0.78232 z"
       id="path887-1-4-0-2-1"
       inkscape:connector-curvature="0"
       sodipodi:nodetypes="ccccsscc" />
    <path
       style="fill:#b9e224;fill-opacity:0.44818654;stroke:none;stroke-width:0.06219644px;stroke-linecap:butt;stroke-linejoin:miter;stroke-opacity:1"
       d="m 6.956594,288.967 0.90658,0.004 1e-5,14.0178 -0.90658,-0.0394 c 0,0 0.46472,-0.54802 0.49327,-1.01081 0.25733,-4.17132 0.19244,-9.1979 -0.10071,-12.18925 -0.043,-0.43973 -0.6054,-0.78231 -0.6054,-0.78231 z"
       id="path887-1-4-0-67-5"
       inkscape:connector-curvature="0"
       sodipodi:nodetypes="ccccsscc" />
    <path
       style="fill:#b9e224;fill-opacity:0.44818654;stroke:none;stroke-width:0.06219644px;stroke-linecap:butt;stroke-linejoin:miter;stroke-opacity:1"
       d="m 6.984484,236.44849 0.90658,0.004 10e-6,14.0178 -0.90658,-0.0394 c 0,0 0.46472,-0.54802 0.49327,-1.01081 0.25733,-4.17132 0.19244,-9.1979 -0.10071,-12.18925 -0.043,-0.43973 -0.6054,-0.78231 -0.6054,-0.78231 z"
       id="path887-1-4-0-5-9"
       inkscape:connector-curvature="0"
       sodipodi:nodetypes="ccccsscc" />
  </g>
</svg>
