<?xml version="1.0" encoding="UTF-8" standalone="no"?>
<!-- Created with Inkscape (http://www.inkscape.org/) -->

<svg
   xmlns:osb="http://www.openswatchbook.org/uri/2009/osb"
   xmlns:dc="http://purl.org/dc/elements/1.1/"
   xmlns:cc="http://creativecommons.org/ns#"
   xmlns:rdf="http://www.w3.org/1999/02/22-rdf-syntax-ns#"
   xmlns:svg="http://www.w3.org/2000/svg"
   xmlns="http://www.w3.org/2000/svg"
   xmlns:sodipodi="http://sodipodi.sourceforge.net/DTD/sodipodi-0.dtd"
   xmlns:inkscape="http://www.inkscape.org/namespaces/inkscape"
   width="200"
   height="200"
   viewBox="0 0 52.916666 52.916666"
   version="1.1"
   id="svg8"
   inkscape:version="0.92.3 (2405546, 2018-03-11)"
   sodipodi:docname="walls-grey-bottom.svg">
  <defs
     id="defs2">
    <linearGradient
       id="linearGradient1190"
       osb:paint="solid">
      <stop
         style="stop-color:#374548;stop-opacity:1;"
         offset="0"
         id="stop1188" />
    </linearGradient>
    <linearGradient
       id="linearGradient1180"
       osb:paint="gradient">
      <stop
         style="stop-color:#374548;stop-opacity:1;"
         offset="0"
         id="stop1176" />
      <stop
         style="stop-color:#374548;stop-opacity:0;"
         offset="1"
         id="stop1178" />
    </linearGradient>
  </defs>
  <sodipodi:namedview
     id="base"
     pagecolor="#ffffff"
     bordercolor="#666666"
     borderopacity="1.0"
     inkscape:pageopacity="0.0"
     inkscape:pageshadow="2"
     inkscape:zoom="2.8"
     inkscape:cx="4.7287816"
     inkscape:cy="89.388689"
     inkscape:document-units="mm"
     inkscape:current-layer="layer1"
     showgrid="false"
     units="px"
     inkscape:window-width="1920"
     inkscape:window-height="1006"
     inkscape:window-x="0"
     inkscape:window-y="0"
     inkscape:window-maximized="1"
     showguides="true"
     inkscape:guide-bbox="true"
     inkscape:snap-grids="false"
     inkscape:snap-to-guides="false">
    <sodipodi:guide
       position="50.380305,59.467469"
       orientation="0,1"
       id="guide839"
       inkscape:locked="false" />
    <sodipodi:guide
       position="74.461309,55.562499"
       orientation="1,0"
       id="guide841"
       inkscape:locked="false" />
    <sodipodi:guide
       position="74.461309,55.562499"
       orientation="1,0"
       id="guide975"
       inkscape:locked="false" />
    <sodipodi:guide
       position="64.011051,-12.428033"
       orientation="0,1"
       id="guide1123"
       inkscape:locked="false" />
    <sodipodi:guide
       position="60.937451,73.499119"
       orientation="0,1"
       id="guide877"
       inkscape:locked="false" />
    <sodipodi:guide
       position="59.066565,64.144686"
       orientation="0,1"
       id="guide879"
       inkscape:locked="false" />
  </sodipodi:namedview>
  <metadata
     id="metadata5">
    <rdf:RDF>
      <cc:Work
         rdf:about="">
        <dc:format>image/svg+xml</dc:format>
        <dc:type
           rdf:resource="http://purl.org/dc/dcmitype/StillImage" />
        <dc:title></dc:title>
      </cc:Work>
    </rdf:RDF>
  </metadata>
  <g
     inkscape:label="Layer 1"
     inkscape:groupmode="layer"
     id="layer1"
     transform="translate(0,-244.08334)">
    <rect
       style="opacity:1;fill:#094130;fill-opacity:1;fill-rule:nonzero;stroke:none;stroke-width:0.25344202;stroke-opacity:1"
       id="rect1140"
       width="52.936504"
       height="49.082989"
       x="0.026989246"
       y="-293.26749"
       transform="scale(1,-1)" />
    <path
       style="fill:#91c35c;fill-opacity:1;stroke:none;stroke-width:0.26998267px;stroke-linecap:butt;stroke-linejoin:miter;stroke-opacity:1"
       d="M 0.0383901,294.35416 -0.06,284.3378 h 25.089467 l 0.19678,10.01636 z"
       id="path887"
       inkscape:connector-curvature="0" />
    <path
       style="fill:#91c35c;fill-opacity:1;stroke:none;stroke-width:0.26578715px;stroke-linecap:butt;stroke-linejoin:miter;stroke-opacity:1"
       d="m 26.537579,294.35416 -0.09536,-10.01636 h 26.50894 v 10.01636 z"
       id="path889"
       inkscape:connector-curvature="0" />
    <path
       style="fill:#557124;fill-opacity:1;stroke:none;stroke-width:0.1015611px;stroke-linecap:butt;stroke-linejoin:miter;stroke-opacity:1"
       d="m -0.05999996,284.3378 0.0704901,-1.35058 24.82219686,-0.0668 0.19678,1.4174 z"
       id="path887-1"
       inkscape:connector-curvature="0"
       sodipodi:nodetypes="ccccc" />
    <path
       style="fill:#557124;fill-opacity:1;stroke:none;stroke-width:0.10449398px;stroke-linecap:butt;stroke-linejoin:miter;stroke-opacity:1"
       d="m 52.951159,284.3378 -0.07462,-1.35058 -26.276519,-0.0668 -0.208309,1.4174 z"
       id="path887-1-1"
       inkscape:connector-curvature="0"
       sodipodi:nodetypes="ccccc" />
    <path
       style="fill:#91c35c;fill-opacity:0.47927467;stroke:none;stroke-width:0.16978028px;stroke-linecap:butt;stroke-linejoin:miter;stroke-opacity:1"
       d="m 1.3385409,272.88914 c -0.1514501,0.2719 -0.066127,0.54381 -0.095946,0.81571 l -0.012005,6.12646 H 15.248391 l -0.157327,-7.02282 -12.8526638,-0.0182 c -0.2805324,-0.006 -0.5749294,0.016 -0.8998593,0.0989 z"
       id="path887-3"
       inkscape:connector-curvature="0"
       sodipodi:nodetypes="ccccccc" />
    <path
       style="fill:#557124;fill-opacity:0.74352327;stroke:none;stroke-width:0.06386734px;stroke-linecap:butt;stroke-linejoin:miter;stroke-opacity:1"
       d="m 1.2305901,279.83131 0.039384,0.95595 13.8684729,0.0473 0.109944,-1.00324 z"
       id="path887-1-4"
       inkscape:connector-curvature="0"
       sodipodi:nodetypes="ccccc" />
    <path
       style="fill:#91c35c;fill-opacity:0.47927467;stroke:none;stroke-width:0.18377082px;stroke-linecap:butt;stroke-linejoin:miter;stroke-opacity:1"
       d="m 17.91157,272.73216 -0.06441,7.08964 h 16.42323 l -0.184324,-7.02282 z"
       id="path887-3-0"
       inkscape:connector-curvature="0"
       sodipodi:nodetypes="ccccc" />
    <path
       style="fill:#557124;fill-opacity:0.74352327;stroke:none;stroke-width:0.06913025px;stroke-linecap:butt;stroke-linejoin:miter;stroke-opacity:1"
       d="m 17.847166,279.8218 0.04614,0.95595 16.248272,0.0473 0.128811,-1.00324 z"
       id="path887-1-4-3"
       inkscape:connector-curvature="0"
       sodipodi:nodetypes="ccccc" />
    <path
       style="fill:#91c35c;fill-opacity:0.47927467;stroke:none;stroke-width:0.16978028px;stroke-linecap:butt;stroke-linejoin:miter;stroke-opacity:1"
       d="m 36.276918,272.66535 -0.05497,7.08964 h 14.017801 l -0.157327,-7.02282 z"
       id="path887-3-9"
       inkscape:connector-curvature="0"
       sodipodi:nodetypes="ccccc" />
    <path
       style="fill:#557124;fill-opacity:0.74352327;stroke:none;stroke-width:0.06386734px;stroke-linecap:butt;stroke-linejoin:miter;stroke-opacity:1"
       d="m 36.221946,279.75499 0.03938,0.95595 13.868473,0.0473 0.109944,-1.00324 z"
       id="path887-1-4-1"
       inkscape:connector-curvature="0"
       sodipodi:nodetypes="ccccc" />
    <path
       style="fill:#91c35c;fill-opacity:0.47927467;stroke:none;stroke-width:0.18488891px;stroke-linecap:butt;stroke-linejoin:miter;stroke-opacity:1"
       d="m 8.6247412,263.17728 -0.065189,7.08964 H 25.183231 l -0.186574,-7.02282 z"
       id="path887-3-96"
       inkscape:connector-curvature="0"
       sodipodi:nodetypes="ccccc" />
    <path
       style="fill:#557124;fill-opacity:0.74352327;stroke:none;stroke-width:0.06955085px;stroke-linecap:butt;stroke-linejoin:miter;stroke-opacity:1"
       d="m 8.55955,270.26692 0.046701,0.95595 16.44659,0.0473 0.130383,-1.00324 z"
       id="path887-1-4-9"
       inkscape:connector-curvature="0"
       sodipodi:nodetypes="ccccc" />
    <path
       style="fill:#91c35c;fill-opacity:0.47927467;stroke:none;stroke-width:0.16978028px;stroke-linecap:butt;stroke-linejoin:miter;stroke-opacity:1"
       d="m 27.991562,263.2441 -0.05497,7.08964 h 14.017801 l -0.157327,-7.02282 z"
       id="path887-3-3"
       inkscape:connector-curvature="0"
       sodipodi:nodetypes="ccccc" />
    <path
       style="fill:#557124;fill-opacity:0.74352327;stroke:none;stroke-width:0.06386734px;stroke-linecap:butt;stroke-linejoin:miter;stroke-opacity:1"
       d="m 27.936591,270.33374 0.03938,0.95595 13.868472,0.0473 0.109944,-1.00324 z"
       id="path887-1-4-38"
       inkscape:connector-curvature="0"
       sodipodi:nodetypes="ccccc" />
    <path
       style="fill:#91c35c;fill-opacity:0.47927467;stroke:none;stroke-width:0.12936081px;stroke-linecap:butt;stroke-linejoin:miter;stroke-opacity:1"
       d="m 44.940119,263.37773 -0.03191,7.08964 h 8.137869 l -0.09133,-7.02282 z"
       id="path887-3-05"
       inkscape:connector-curvature="0"
       sodipodi:nodetypes="ccccc" />
    <path
       style="fill:#557124;fill-opacity:0.74352327;stroke:none;stroke-width:0.04866248px;stroke-linecap:butt;stroke-linejoin:miter;stroke-opacity:1"
       d="m 44.908206,270.46737 0.02286,0.95595 8.051179,0.0473 0.06383,-1.00324 z"
       id="path887-1-4-6"
       inkscape:connector-curvature="0"
       sodipodi:nodetypes="ccccc" />
    <path
       style="fill:#91c35c;fill-opacity:0.47927467;stroke:none;stroke-width:0.11532234px;stroke-linecap:butt;stroke-linejoin:miter;stroke-opacity:1"
       d="m -0.03453044,263.40715 -0.02536168,7.08964 H 6.4075458 l -0.072586,-7.02282 z"
       id="path887-3-6"
       inkscape:connector-curvature="0"
       sodipodi:nodetypes="ccccc" />
    <path
       style="fill:#557124;fill-opacity:0.74352327;stroke:none;stroke-width:0.04338155px;stroke-linecap:butt;stroke-linejoin:miter;stroke-opacity:1"
       d="m -0.05989304,270.49679 0.01816887,0.95595 6.39854197,0.0473 0.050725,-1.00324 z"
       id="path887-1-4-4"
       inkscape:connector-curvature="0"
       sodipodi:nodetypes="ccccc" />
    <path
       style="fill:#b9e224;fill-opacity:0.44818654;stroke:none;stroke-width:0.06386734px;stroke-linecap:butt;stroke-linejoin:miter;stroke-opacity:1"
       d="m 1.2266414,278.87536 0.00395,0.95595 14.0178006,1e-5 -0.03938,-0.95595 c 0,0 -0.54802,0.49003 -1.010803,0.52013 -4.171321,0.27134 -9.1979073,0.20292 -12.1892507,-0.10619 -0.4397318,-0.0454 -0.7823156,-0.63837 -0.7823156,-0.63837 z"
       id="path887-1-4-0"
       inkscape:connector-curvature="0"
       sodipodi:nodetypes="ccccsscc" />
    <path
       style="fill:#b9e224;fill-opacity:0.44818654;stroke:none;stroke-width:0.06912892px;stroke-linecap:butt;stroke-linejoin:miter;stroke-opacity:1"
       d="m 17.843224,278.86585 0.0046,0.95595 16.422596,1e-5 -0.04614,-0.95595 c 0,0 -0.642034,0.49003 -1.184208,0.52013 -4.886925,0.27134 -10.775837,0.20292 -14.280353,-0.10619 -0.51517,-0.0454 -0.916525,-0.63837 -0.916525,-0.63837 z"
       id="path887-1-4-0-0"
       inkscape:connector-curvature="0"
       sodipodi:nodetypes="ccccsscc" />
    <path
       style="fill:#b9e224;fill-opacity:0.44818654;stroke:none;stroke-width:0.06386734px;stroke-linecap:butt;stroke-linejoin:miter;stroke-opacity:1"
       d="m 36.218048,278.79904 0.0039,0.95595 14.017801,10e-6 -0.03938,-0.95595 c 0,0 -0.54802,0.49003 -1.010803,0.52013 -4.171321,0.27134 -9.197907,0.20292 -12.189251,-0.10619 -0.439732,-0.0454 -0.782315,-0.63837 -0.782315,-0.63837 z"
       id="path887-1-4-0-4"
       inkscape:connector-curvature="0"
       sodipodi:nodetypes="ccccsscc" />
    <path
       style="fill:#b9e224;fill-opacity:0.44818654;stroke:none;stroke-width:0.06954928px;stroke-linecap:butt;stroke-linejoin:miter;stroke-opacity:1"
       d="m 8.5555522,269.31097 0.00474,0.95595 16.6229288,10e-6 -0.0467,-0.95595 c 0,0 -0.649866,0.49003 -1.198654,0.52013 -4.946537,0.27134 -10.907287,0.20292 -14.4545538,-0.10619 -0.5214537,-0.0454 -0.9277049,-0.63837 -0.9277049,-0.63837 z"
       id="path887-1-4-0-6"
       inkscape:connector-curvature="0"
       sodipodi:nodetypes="ccccsscc" />
    <path
       style="fill:#b9e224;fill-opacity:0.44818654;stroke:none;stroke-width:0.06386734px;stroke-linecap:butt;stroke-linejoin:miter;stroke-opacity:1"
       d="m 27.932692,269.37779 0.0039,0.95595 14.017801,1e-5 -0.03938,-0.95595 c 0,0 -0.54802,0.49003 -1.010803,0.52013 -4.171321,0.27134 -9.197908,0.20292 -12.189251,-0.10619 -0.439732,-0.0454 -0.782316,-0.63837 -0.782316,-0.63837 z"
       id="path887-1-4-0-2"
       inkscape:connector-curvature="0"
       sodipodi:nodetypes="ccccsscc" />
    <path
       style="fill:#b9e224;fill-opacity:0.44818654;stroke:none;stroke-width:0.06386734px;stroke-linecap:butt;stroke-linejoin:miter;stroke-opacity:1"
       d="m 44.904206,272.15727 0.004,0.95595 14.017801,10e-6 -0.03938,-0.95595 c 0,0 -0.54802,0.49003 -1.010803,0.52013 -4.171321,0.27134 -9.197908,0.20292 -12.189251,-0.10619 -0.439732,-0.0454 -0.782316,-0.63837 -0.782316,-0.63837 z"
       id="path887-1-4-0-67"
       inkscape:connector-curvature="0"
       sodipodi:nodetypes="ccccsscc" />
    <path
       style="fill:#b9e224;fill-opacity:0.44818654;stroke:none;stroke-width:0.06386734px;stroke-linecap:butt;stroke-linejoin:miter;stroke-opacity:1"
       d="m -7.6142552,272.18668 0.004,0.95595 14.017801,10e-6 -0.03938,-0.95595 c 0,0 -0.54802,0.49003 -1.010803,0.52013 -4.171321,0.27134 -9.197907,0.20292 -12.189251,-0.10619 -0.439731,-0.0454 -0.782315,-0.63837 -0.782315,-0.63837 z"
       id="path887-1-4-0-5"
       inkscape:connector-curvature="0"
       sodipodi:nodetypes="ccccsscc" />
    <path
       style="fill:#b9e29c;fill-opacity:0.68393782;stroke:none;stroke-width:0.11989258px;stroke-linecap:butt;stroke-linejoin:miter;stroke-opacity:1"
       d="m -0.15079004,286.21371 0.007051,-1.87587 25.17320604,-2e-5 -0.07072,1.87587 c 0,0 -0.984135,-0.96159 -1.815201,-1.02065 -7.490872,-0.53246 -16.5176303,-0.3982 -21.8894913,0.20837 -0.78967294,0.0891 -1.40488579,1.25269 -1.40488579,1.25269 z"
       id="path887-1-4-0-0-6"
       inkscape:connector-curvature="0"
       sodipodi:nodetypes="ccccsscc" />
    <path
       style="fill:#b9e29c;fill-opacity:0.68235294;stroke:none;stroke-width:0.1303478px;stroke-linecap:butt;stroke-linejoin:miter;stroke-opacity:1"
       d="m 26.437635,286.44168 0.0074,-2.10387 26.530609,-2e-5 -0.07454,2.10386 c 0,0 -1.037203,-1.07846 -1.913081,-1.1447 -7.8948,-0.59717 -17.408303,-0.44659 -23.069828,0.2337 -0.832254,0.0999 -1.480641,1.40493 -1.480641,1.40493 z"
       id="path887-1-4-0-0-9"
       inkscape:connector-curvature="0"
       sodipodi:nodetypes="ccccsscc" />
    <path
       style="fill:#91c35c;fill-opacity:0.47927467;stroke:none;stroke-width:0.16978028px;stroke-linecap:butt;stroke-linejoin:miter;stroke-opacity:1"
       d="m 50.815142,253.86745 c 0.15145,0.2719 0.06613,0.54381 0.09595,0.81571 l 0.012,6.12646 H 36.90529 l 0.157327,-7.02282 12.852664,-0.0182 c 0.280533,-0.006 0.57493,0.016 0.89986,0.0989 z"
       id="path887-3-8"
       inkscape:connector-curvature="0"
       sodipodi:nodetypes="ccccccc" />
    <path
       style="fill:#557124;fill-opacity:0.74352327;stroke:none;stroke-width:0.06386734px;stroke-linecap:butt;stroke-linejoin:miter;stroke-opacity:1"
       d="m 50.923092,260.80962 -0.03938,0.95595 -13.868473,0.0473 -0.109944,-1.00324 z"
       id="path887-1-4-7"
       inkscape:connector-curvature="0"
       sodipodi:nodetypes="ccccc" />
    <path
       style="fill:#91c35c;fill-opacity:0.47927467;stroke:none;stroke-width:0.18377082px;stroke-linecap:butt;stroke-linejoin:miter;stroke-opacity:1"
       d="m 34.242112,253.71047 0.06441,7.08964 h -16.42323 l 0.184325,-7.02282 z"
       id="path887-3-0-2"
       inkscape:connector-curvature="0"
       sodipodi:nodetypes="ccccc" />
    <path
       style="fill:#557124;fill-opacity:0.74352327;stroke:none;stroke-width:0.06913025px;stroke-linecap:butt;stroke-linejoin:miter;stroke-opacity:1"
       d="m 34.306516,260.80011 -0.04614,0.95595 -16.248272,0.0473 -0.128812,-1.00324 z"
       id="path887-1-4-3-8"
       inkscape:connector-curvature="0"
       sodipodi:nodetypes="ccccc" />
    <path
       style="fill:#91c35c;fill-opacity:0.47927467;stroke:none;stroke-width:0.16978028px;stroke-linecap:butt;stroke-linejoin:miter;stroke-opacity:1"
       d="m 15.876763,253.64366 0.05497,7.08964 H 1.9139339 l 0.157326,-7.02282 z"
       id="path887-3-9-2"
       inkscape:connector-curvature="0"
       sodipodi:nodetypes="ccccc" />
    <path
       style="fill:#557124;fill-opacity:0.74352327;stroke:none;stroke-width:0.06386734px;stroke-linecap:butt;stroke-linejoin:miter;stroke-opacity:1"
       d="m 15.931736,260.7333 -0.03938,0.95595 -13.8684711,0.0473 -0.109945,-1.00324 z"
       id="path887-1-4-1-9"
       inkscape:connector-curvature="0"
       sodipodi:nodetypes="ccccc" />
    <path
       style="fill:#b9e224;fill-opacity:0.44818654;stroke:none;stroke-width:0.06386734px;stroke-linecap:butt;stroke-linejoin:miter;stroke-opacity:1"
       d="m 50.927041,259.85367 -0.0039,0.95595 -14.017801,1e-5 0.03938,-0.95595 c 0,0 0.54802,0.49003 1.010803,0.52013 4.171321,0.27134 9.197908,0.20292 12.189251,-0.10619 0.439732,-0.0454 0.782316,-0.63837 0.782316,-0.63837 z"
       id="path887-1-4-0-9"
       inkscape:connector-curvature="0"
       sodipodi:nodetypes="ccccsscc" />
    <path
       style="fill:#b9e224;fill-opacity:0.44818654;stroke:none;stroke-width:0.06912892px;stroke-linecap:butt;stroke-linejoin:miter;stroke-opacity:1"
       d="m 34.310458,259.84416 -0.0046,0.95595 -16.422597,10e-6 0.04614,-0.95595 c 0,0 0.642038,0.49003 1.184211,0.52013 4.886926,0.27134 10.775836,0.20292 14.280352,-0.10619 0.515171,-0.0454 0.916526,-0.63837 0.916526,-0.63837 z"
       id="path887-1-4-0-0-60"
       inkscape:connector-curvature="0"
       sodipodi:nodetypes="ccccsscc" />
    <path
       style="fill:#b9e224;fill-opacity:0.44818654;stroke:none;stroke-width:0.06386734px;stroke-linecap:butt;stroke-linejoin:miter;stroke-opacity:1"
       d="m 15.935633,259.77735 -0.0039,0.95595 -14.0178001,1e-5 0.03938,-0.95595 c 0,0 0.548021,0.49003 1.010804,0.52013 4.171323,0.27134 9.1979091,0.20292 12.1892511,-0.10619 0.439732,-0.0454 0.782314,-0.63837 0.782314,-0.63837 z"
       id="path887-1-4-0-4-2"
       inkscape:connector-curvature="0"
       sodipodi:nodetypes="ccccsscc" />
    <path
       style="fill:#91c35c;fill-opacity:0.47927467;stroke:none;stroke-width:0.18005185px;stroke-linecap:butt;stroke-linejoin:miter;stroke-opacity:1"
       d="m 44.304221,245.01304 0.06519,6.72353 H 27.745733 l 0.186573,-6.66016 z"
       id="path887-3-96-7"
       inkscape:connector-curvature="0"
       sodipodi:nodetypes="ccccc" />
    <path
       style="fill:#91c35c;fill-opacity:0.47927467;stroke:none;stroke-width:0.16533849px;stroke-linecap:butt;stroke-linejoin:miter;stroke-opacity:1"
       d="m 24.9374,245.07641 0.05497,6.72353 h -14.0178 l 0.157327,-6.66016 z"
       id="path887-3-3-6"
       inkscape:connector-curvature="0"
       sodipodi:nodetypes="ccccc" />
    <path
       style="fill:#91c35c;fill-opacity:0.47927467;stroke:none;stroke-width:0.12597647px;stroke-linecap:butt;stroke-linejoin:miter;stroke-opacity:1"
       d="m 7.9888433,245.20314 0.03191,6.72353 h -8.13786895 l 0.09133,-6.66016 z"
       id="path887-3-05-1"
       inkscape:connector-curvature="0"
       sodipodi:nodetypes="ccccc" />
    <path
       style="fill:#91c35c;fill-opacity:0.47927467;stroke:none;stroke-width:0.11230528px;stroke-linecap:butt;stroke-linejoin:miter;stroke-opacity:1"
       d="m 52.963493,245.23104 0.02536,6.72353 h -6.467438 l 0.07259,-6.66016 z"
       id="path887-3-6-3"
       inkscape:connector-curvature="0"
       sodipodi:nodetypes="ccccc" />
    <path
       style="fill:#b9e224;fill-opacity:0.44818654;stroke:none;stroke-width:0.06772973px;stroke-linecap:butt;stroke-linejoin:miter;stroke-opacity:1"
       d="m 44.373411,250.82999 -0.0047,0.90658 -16.622928,1e-5 0.0467,-0.90658 c 0,0 0.649865,0.46472 1.198653,0.49327 4.946541,0.25733 10.907291,0.19244 14.454557,-0.10071 0.521454,-0.043 0.927705,-0.6054 0.927705,-0.6054 z"
       id="path887-1-4-0-6-2"
       inkscape:connector-curvature="0"
       sodipodi:nodetypes="ccccsscc" />
    <path
       style="fill:#b9e224;fill-opacity:0.44818654;stroke:none;stroke-width:0.06219644px;stroke-linecap:butt;stroke-linejoin:miter;stroke-opacity:1"
       d="m 24.99627,250.89336 -0.0039,0.90658 -14.0178,1e-5 0.03938,-0.90658 c 0,0 0.548021,0.46472 1.010803,0.49327 4.171321,0.25733 9.197909,0.19244 12.189251,-0.10071 0.439733,-0.043 0.782318,-0.6054 0.782318,-0.6054 z"
       id="path887-1-4-0-2-1"
       inkscape:connector-curvature="0"
       sodipodi:nodetypes="ccccsscc" />
    <path
       style="fill:#b9e224;fill-opacity:0.44818654;stroke:none;stroke-width:0.06219644px;stroke-linecap:butt;stroke-linejoin:miter;stroke-opacity:1"
       d="m 8.0247573,253.66594 -0.004,0.90658 -14.017802,1e-5 0.03938,-0.90658 c 0,0 0.548021,0.46472 1.010804,0.49327 4.17132005,0.25733 9.197909,0.19244 12.189251,-0.10071 0.439732,-0.043 0.782315,-0.6054 0.782315,-0.6054 z"
       id="path887-1-4-0-67-5"
       inkscape:connector-curvature="0"
       sodipodi:nodetypes="ccccsscc" />
    <path
       style="fill:#b9e224;fill-opacity:0.44818654;stroke:none;stroke-width:0.06219644px;stroke-linecap:butt;stroke-linejoin:miter;stroke-opacity:1"
       d="m 60.543218,253.69383 -0.004,0.90658 -14.017801,1e-5 0.03938,-0.90658 c 0,0 0.54802,0.46472 1.010803,0.49327 4.171321,0.25733 9.197907,0.19244 12.189251,-0.10071 0.439731,-0.043 0.782315,-0.6054 0.782315,-0.6054 z"
       id="path887-1-4-0-5-9"
       inkscape:connector-curvature="0"
       sodipodi:nodetypes="ccccsscc" />
  </g>
</svg>
