<?xml version="1.0" encoding="UTF-8" standalone="no"?>
<!-- Created with Inkscape (http://www.inkscape.org/) -->

<svg
   xmlns:dc="http://purl.org/dc/elements/1.1/"
   xmlns:cc="http://creativecommons.org/ns#"
   xmlns:rdf="http://www.w3.org/1999/02/22-rdf-syntax-ns#"
   xmlns:svg="http://www.w3.org/2000/svg"
   xmlns="http://www.w3.org/2000/svg"
   xmlns:sodipodi="http://sodipodi.sourceforge.net/DTD/sodipodi-0.dtd"
   xmlns:inkscape="http://www.inkscape.org/namespaces/inkscape"
   width="200"
   height="200"
   viewBox="0 0 52.916666 52.916666"
   version="1.1"
   id="svg8"
   inkscape:version="0.92.4 (5da689c313, 2019-01-14)"
   sodipodi:docname="stones.svg">
  <defs
     id="defs2" />
  <sodipodi:namedview
     id="base"
     pagecolor="#ffffff"
     bordercolor="#666666"
     borderopacity="1.0"
     inkscape:pageopacity="0.0"
     inkscape:pageshadow="2"
     inkscape:zoom="2.8"
     inkscape:cx="26.815835"
     inkscape:cy="126.28441"
     inkscape:document-units="mm"
     inkscape:current-layer="layer1"
     showgrid="false"
     units="px"
     inkscape:window-width="1920"
     inkscape:window-height="1001"
     inkscape:window-x="-9"
     inkscape:window-y="-9"
     inkscape:window-maximized="1" />
  <metadata
     id="metadata5">
    <rdf:RDF>
      <cc:Work
         rdf:about="">
        <dc:format>image/svg+xml</dc:format>
        <dc:type
           rdf:resource="http://purl.org/dc/dcmitype/StillImage" />
        <dc:title></dc:title>
      </cc:Work>
    </rdf:RDF>
  </metadata>
  <g
     inkscape:label="Layer 1"
     inkscape:groupmode="layer"
     id="layer1"
     transform="translate(0,-244.08334)">
    <path
       style="fill:none;stroke:#000000;stroke-width:0.29957354px;stroke-linecap:butt;stroke-linejoin:miter;stroke-opacity:0"
       d="m 3.1139038,247.52534 c 4.0284278,-4.44927 13.8295152,-1.80934 16.2617622,0.46882 1.867661,1.55809 6.610749,7.56449 -3.516056,11.72025 -4.882508,1.72708 -9.0800255,1.70057 -12.0131944,-1.5627 -4.17769573,-5.2698 -3.14269588,-8.25009 -0.7325118,-10.62637 z"
       id="path3715"
       inkscape:connector-curvature="0"
       sodipodi:nodetypes="ccccc" />
    <path
       style="fill:none;stroke:#000000;stroke-width:0.31571713px;stroke-linecap:butt;stroke-linejoin:miter;stroke-opacity:0"
       d="m 34.873289,279.22605 c 5.497616,-3.01469 14.126327,3.21224 15.695458,6.3922 1.272319,2.24919 3.780961,10.02542 -7.561167,10.52439 -5.370961,-0.038 -9.455618,-1.59277 -11.166029,-5.94727 -2.216872,-6.8285 -0.156734,-9.45341 3.031738,-10.96932 z"
       id="path3715-7"
       inkscape:connector-curvature="0"
       sodipodi:nodetypes="ccccc" />
    <path
       style="fill:none;stroke:#000000;stroke-width:0.42542356px;stroke-linecap:butt;stroke-linejoin:miter;stroke-opacity:0"
       d="m 45.955771,258.15962 c -5.825276,-6.20503 -19.998059,-2.52333 -23.515192,0.65383 -2.700715,2.17294 -9.559419,10.54958 5.084365,16.34527 7.060312,2.40862 13.1301,2.37164 17.371586,-2.17937 6.041121,-7.34935 4.544468,-11.50572 1.059241,-14.81973 z"
       id="path3715-9"
       inkscape:connector-curvature="0"
       sodipodi:nodetypes="ccccc" />
    <path
       style="fill:none;stroke:#000000;stroke-width:0.17731735px;stroke-linecap:butt;stroke-linejoin:miter;stroke-opacity:0"
       d="m 24.213927,246.61924 c 2.285293,-2.74776 7.845364,-1.1174 9.225157,0.28953 1.059508,0.96224 3.750221,4.67164 -1.994628,7.23813 -2.769805,1.0666 -5.15102,1.05023 -6.814981,-0.96508 -2.369971,-3.2545 -1.782824,-5.09505 -0.415548,-6.56258 z"
       id="path3715-1"
       inkscape:connector-curvature="0"
       sodipodi:nodetypes="ccccc" />
    <path
       style="fill:none;stroke:#000000;stroke-width:0.19148454px;stroke-linecap:butt;stroke-linejoin:miter;stroke-opacity:0"
       d="m 49.373691,246.57188 c -2.66506,-2.74776 -9.149092,-1.1174 -10.758178,0.28953 -1.235575,0.96224 -4.373426,4.67164 2.326093,7.23813 3.230086,1.0666 6.007007,1.05023 7.947482,-0.96508 2.763809,-3.2545 2.079091,-5.09505 0.484603,-6.56258 z"
       id="path3715-1-1"
       inkscape:connector-curvature="0"
       sodipodi:nodetypes="ccccc" />
    <path
       style="fill:none;stroke:#000000;stroke-width:0.12299952px;stroke-linecap:butt;stroke-linejoin:miter;stroke-opacity:0"
       d="m 50.918405,273.75466 c -1.29056,-2.34124 -4.430467,-0.95209 -5.209669,0.2467 -0.59833,0.81988 -2.117841,3.98049 1.126414,6.16728 1.564176,0.90881 2.908906,0.89486 3.848585,-0.8223 1.33838,-2.77301 1.006804,-4.34126 0.23467,-5.59168 z"
       id="path3715-1-7"
       inkscape:connector-curvature="0"
       sodipodi:nodetypes="ccccc" />
    <path
       style="fill:none;stroke:#000000;stroke-width:0.2043813px;stroke-linecap:butt;stroke-linejoin:miter;stroke-opacity:0"
       d="m 2.8083341,263.76999 c 3.0361409,-2.74776 10.4230069,-1.1174 12.2561399,0.28953 1.407616,0.96224 4.982379,4.67164 -2.649976,7.23813 -3.6798405,1.0666 -6.8434198,1.05023 -9.0540852,-0.96508 -3.14863905,-3.2545 -2.3685815,-5.09505 -0.5520787,-6.56258 z"
       id="path3715-1-1-8"
       inkscape:connector-curvature="0"
       sodipodi:nodetypes="ccccc" />
    <path
       style="fill:none;stroke:#000000;stroke-width:0.26928726px;stroke-linecap:butt;stroke-linejoin:miter;stroke-opacity:0"
       d="m 14.923096,281.04287 c -4.812667,-2.14071 -11.746958,3.88194 -12.8922394,6.73027 -0.9472484,2.02764 -2.6260921,8.8865 6.9795955,8.40509 4.5331829,-0.46279 7.8944659,-2.1212 9.0926599,-5.98647 1.486031,-6.02406 -0.401939,-8.10641 -3.180016,-9.14889 z"
       id="path3715-1-1-4"
       inkscape:connector-curvature="0"
       sodipodi:nodetypes="ccccc" />
    <path
       style="fill:none;stroke:#000000;stroke-width:0.17325084px;stroke-linecap:butt;stroke-linejoin:miter;stroke-opacity:0"
       d="m 29.486092,288.10973 c -2.181676,-2.81889 -7.489646,-1.36157 -8.806879,0.002 -1.011469,0.92927 -3.580182,4.55492 1.90419,7.30021 2.644219,1.15281 4.917468,1.21055 6.505983,-0.75297 2.262514,-3.18074 1.701989,-5.03957 0.396706,-6.54965 z"
       id="path3715-1-1-45"
       inkscape:connector-curvature="0"
       sodipodi:nodetypes="ccccc" />
    <path
       style="fill:none;stroke:#000000;stroke-width:0.1773034px;stroke-linecap:butt;stroke-linejoin:miter;stroke-opacity:0"
       d="m 19.858493,277.49876 c 2.284934,-2.81889 7.84413,-1.36157 9.223707,0.002 1.059342,0.92927 3.749631,4.55492 -1.994315,7.30021 -2.769369,1.15281 -5.150211,1.21055 -6.81391,-0.75297 -2.369599,-3.18074 -1.782544,-5.03957 -0.415482,-6.54965 z"
       id="path3715-1-1-45-6"
       inkscape:connector-curvature="0"
       sodipodi:nodetypes="ccccc" />
    <path
       style="fill:none;stroke:#000000;stroke-width:0.15724471px;stroke-linecap:butt;stroke-linejoin:miter;stroke-opacity:0"
       d="m 3.6576227,281.24062 c 2.952709,1.41643 6.9346573,-1.73474 7.5370033,-3.31169 0.5079,-1.11741 1.310405,-4.95932 -4.4407359,-5.07606 -2.7070752,0.0792 -4.6749804,0.88781 -5.278538,3.04263 -0.71174206,3.37386 0.4837534,4.63793 2.1823986,5.34538 z"
       id="path3715-1-1-45-5"
       inkscape:connector-curvature="0"
       sodipodi:nodetypes="ccccc" />
    <path
       style="fill:none;stroke:#000000;stroke-width:0.10325451px;stroke-linecap:butt;stroke-linejoin:miter;stroke-opacity:0"
       d="m 19.156975,272.56484 c -1.293773,-1.68841 -4.441496,-0.81553 -5.222639,10e-4 -0.599819,0.5566 -2.123113,2.72822 1.12922,4.37255 1.56807,0.69049 2.916147,0.72507 3.858166,-0.451 1.341711,-1.90514 1.00931,-3.01851 0.235253,-3.92299 z"
       id="path3715-1-1-45-4"
       inkscape:connector-curvature="0"
       sodipodi:nodetypes="ccccc" />
    <path
       style="fill:#ffffff;stroke-width:0.35714287;stroke:#000000;stroke-opacity:0"
       d="m 165.74441,39.838235 c -0.29465,-0.07134 -1.74107,-0.326063 -3.21429,-0.56605 -3.90435,-0.636021 -7.94997,-1.9286 -11.61181,-3.709979 -10.15454,-4.939893 -13.41536,-10.983816 -9.84206,-18.242221 3.9251,-7.9729965 14.64946,-12.7765396 28.59673,-12.8087427 8.3864,-0.019364 12.18562,1.2613446 16.7321,5.6403627 6.27807,6.046821 6.49305,11.712943 0.7591,20.007394 -4.56937,6.60983 -9.51822,9.406985 -17.11879,9.675782 -2.0709,0.07324 -4.00634,0.07479 -4.30098,0.0036 z"
       id="path3837"
       inkscape:connector-curvature="0"
       transform="matrix(0.26458333,0,0,0.26458333,0,244.08334)" />
    <path
       style="fill:#ffffff;stroke-width:0.35714287;stroke:#000000;stroke-opacity:0"
       d="m 163.06584,39.453186 c -11.46537,-2.139831 -20.57387,-7.530635 -22.86629,-13.533255 -1.48499,-3.888403 0.191,-9.104774 4.24751,-13.220004 5.11933,-5.193426 14.40471,-8.1910077 25.40449,-8.2012833 8.2666,-0.00772 12.32,1.3824013 16.72849,5.7370863 4.96404,4.903453 5.90694,9.351983 3.25649,15.36378 -2.78132,6.308628 -8.27226,11.660047 -13.70922,13.360891 -3.14342,0.983355 -9.20718,1.21213 -13.06147,0.492785 z"
       id="path3839"
       inkscape:connector-curvature="0"
       transform="matrix(0.26458333,0,0,0.26458333,0,244.08334)" />
    <path
       style="fill:#6e7b8a;stroke-width:0.35714287;fill-opacity:1;opacity:1;stroke:#000000;stroke-opacity:0"
       d="M 30.922978,61.908506 C 22.972324,60.208456 16.842037,55.734403 11.530756,47.755524 4.3277671,36.934826 2.8375515,28.607551 6.7237543,20.89416 9.2952527,15.790213 15.400493,9.980061 20.617948,7.6715237 30.093921,3.4787441 44.810896,3.6899988 58.638406,8.2172881 c 8.238418,2.6973549 12.098636,4.9618639 16.585993,9.7297949 7.558182,8.030761 9.540911,16.554315 5.651779,24.296459 -1.577739,3.140825 -6.120579,7.821354 -10.114839,10.4214 -6.524393,4.247036 -15.622965,7.728975 -23.891708,9.143136 -4.915964,0.840753 -12.267833,0.887053 -15.946653,0.100428 z"
       id="path3845"
       inkscape:connector-curvature="0"
       transform="matrix(0.26458333,0,0,0.26458333,0,244.08334)" />
    <path
       style="opacity:1;fill:#6e7b8a;fill-opacity:1;stroke-width:0.35714287;stroke:#000000;stroke-opacity:0"
       d="m 103.84294,39.936464 c -4.958503,-0.55095 -9.389166,-3.842547 -12.705691,-9.439219 -2.64573,-4.4647 -3.557291,-7.455159 -3.408273,-11.18116 0.158918,-3.973543 1.285354,-6.36661 4.552185,-9.6709354 3.76081,-3.8039741 7.4724,-5.1510521 13.963249,-5.0677957 8.43156,0.1081493 16.8739,3.1721939 20.81354,7.5540281 0.86417,0.961169 2.19116,2.924214 2.94885,4.362322 1.22758,2.329963 1.39426,2.956171 1.53035,5.749632 0.14352,2.946078 0.0853,3.27188 -0.96699,5.409331 -3.67897,7.473049 -16.59565,13.409539 -26.72722,12.283797 z"
       id="path4652"
       inkscape:connector-curvature="0"
       transform="matrix(0.26458333,0,0,0.26458333,0,244.08334)" />
    <path
       style="opacity:1;fill:#6e7b8a;fill-opacity:1;stroke-width:0.35714287;stroke:#000000;stroke-opacity:0"
       d="m 163.20869,39.474512 c -8.22492,-1.521038 -15.23134,-4.608638 -19.40933,-8.553335 -5.76946,-5.447296 -5.5733,-11.558071 0.58127,-18.107515 4.93815,-5.2549699 14.30977,-8.3182976 25.43521,-8.3140725 8.54047,0.00324 12.21522,1.2819943 16.81101,5.8499355 3.65772,3.635553 4.43899,5.302847 4.43899,9.473206 0,2.867706 -0.12183,3.471434 -1.12986,5.599156 -2.66435,5.62384 -6.85481,10.358271 -10.94495,12.365729 -4.23864,2.08034 -10.20589,2.718151 -15.78234,1.686896 z"
       id="path4654"
       inkscape:connector-curvature="0"
       transform="matrix(0.26458333,0,0,0.26458333,0,244.08334)" />
    <path
       style="opacity:1;fill:#6e7b8a;fill-opacity:1;stroke-width:0.35714287;stroke:#000000;stroke-opacity:0"
       d="m 129.63726,122.25717 c -9.14843,-0.79442 -21.55229,-4.01445 -30.153441,-7.82778 C 83.632768,107.40179 73.696551,98.164496 71.382658,88.304881 70.488364,84.494246 70.836417,78.866199 72.210296,74.921905 74.725751,67.70024 80.454266,60.120334 87.260408,55.00777 94.460093,49.599589 108.41795,44.753145 123.38726,42.463816 c 6.99749,-1.070159 19.31241,-1.162318 25.16789,-0.188344 11.08228,1.843376 18.17146,5.356171 25.15353,12.463956 7.56903,7.705316 10.37517,13.448309 10.38759,21.259074 0.0101,6.334126 -2.08688,12.930733 -6.38781,20.094729 -7.30163,12.162219 -14.01553,18.729669 -23.21203,22.705699 -6.75943,2.92238 -16.08711,4.21999 -24.85917,3.45824 z"
       id="path4656"
       inkscape:connector-curvature="0"
       transform="matrix(0.26458333,0,0,0.26458333,0,244.08334)" />
    <path
       style="opacity:1;fill:#6e7b8a;fill-opacity:1;stroke-width:0.35714287;stroke:#000000;stroke-opacity:0"
       d="m 180.86774,137.69756 c -6.64651,-2.44862 -11.0519,-8.14602 -11.0519,-14.29319 0,-3.25043 1.56523,-7.75602 3.69531,-10.63711 1.03219,-1.39611 4.10553,-3.37647 6.53962,-4.21392 4.78136,-1.64503 9.14366,-0.43274 11.63611,3.23368 3.63579,5.34831 3.68203,12.12767 0.13507,19.80459 -1.41887,3.07097 -3.12526,5.08863 -5.03877,5.95791 -1.6615,0.75481 -4.10261,0.8159 -5.91544,0.14804 z"
       id="path4658"
       inkscape:connector-curvature="0"
       transform="matrix(0.26458333,0,0,0.26458333,0,244.08334)" />
    <path
       style="opacity:1;fill:#6e7b8a;fill-opacity:1;stroke-width:0.35714287;stroke:#000000;stroke-opacity:0"
       d="m 157.49441,195.83693 c -9.51622,-0.7709 -15.81858,-2.34267 -21.71648,-5.41595 -5.47937,-2.85519 -9.55124,-6.76136 -12.59838,-12.08572 -4.14167,-7.23685 -6.58879,-21.26781 -4.97851,-28.54504 1.32942,-6.00795 4.13996,-10.12021 9.23259,-13.50873 6.17745,-4.11034 10.62105,-5.5659 16.99178,-5.5659 12.55841,0 27.49146,6.99247 39.26164,18.38444 5.52048,5.3431 8.24573,9.89789 10.11772,16.91005 1.07233,4.01674 1.08851,10.10138 0.0358,13.47034 -2.91644,9.33363 -11.99362,14.70595 -27.39035,16.21096 -3.73313,0.36491 -5.82777,0.39895 -8.95583,0.14555 z"
       id="path4660"
       inkscape:connector-curvature="0"
       transform="matrix(0.26458333,0,0,0.26458333,0,244.08334)" />
    <path
       style="opacity:1;fill:#6e7b8a;fill-opacity:1;stroke-width:0.35714287;stroke:#000000;stroke-opacity:0"
       d="m 85.351549,155.93487 c -4.100241,-0.9971 -7.572243,-3.78049 -10.434533,-8.36502 -5.322388,-8.52486 -5.057851,-14.88662 0.880794,-21.18189 2.663281,-2.82322 5.346686,-4.32087 9.196596,-5.13276 6.457959,-1.36188 15.253724,0.0314 21.620414,3.42485 2.74035,1.46059 5.67459,4.61161 7.20127,7.73331 1.08185,2.21213 1.17818,2.68713 1.1766,5.80223 -10e-4,3.04027 -0.10792,3.59499 -1.02369,5.33798 -4.22356,8.03867 -19.426759,14.61632 -28.617451,12.3813 z"
       id="path4662"
       inkscape:connector-curvature="0"
       transform="matrix(0.26458333,0,0,0.26458333,0,244.08334)" />
    <path
       style="opacity:1;fill:#6e7b8a;fill-opacity:1;stroke-width:0.35714287;stroke:#000000;stroke-opacity:0"
       d="m 26.780121,196.19478 c -9.914662,-0.79825 -16.484465,-4.18806 -19.4227443,-10.02152 -3.2107552,-6.37441 -1.8966365,-16.96722 3.0374033,-24.4838 2.241875,-3.4153 9.819998,-10.90843 14.063912,-13.90618 9.299664,-6.56894 19.235304,-9.9423 26.2225,-8.90308 5.146425,0.76544 10.917597,3.57315 14.054275,6.83749 3.479072,3.62068 4.885807,7.97955 4.840261,14.9979 -0.04474,6.89402 -1.277354,12.76792 -3.74425,17.8429 -1.597232,3.28588 -2.208575,4.12456 -5.076493,6.96429 -2.152361,2.1312 -4.188414,3.75073 -5.990446,4.76494 -7.396525,4.1629 -19.062464,6.62539 -27.984418,5.90706 z"
       id="path4664"
       inkscape:connector-curvature="0"
       transform="matrix(0.26458333,0,0,0.26458333,0,244.08334)" />
    <path
       style="opacity:1;fill:#6e7b8a;fill-opacity:1;stroke-width:0.35714287;stroke:#000000;stroke-opacity:0"
       d="m 16.958692,140.933 c -4.362569,-0.97057 -8.3418311,-3.69176 -10.0867545,-6.89776 -2.0133434,-3.69918 -2.1014459,-10.30802 -0.2049878,-15.37675 0.9786928,-2.6158 3.9386343,-5.6409 6.8745173,-7.02588 6.279644,-2.96235 16.847238,-3.08516 22.85171,-0.26558 3.034481,1.42494 4.296015,2.60856 5.597115,5.25148 1.069646,2.17275 1.118732,2.45535 0.979475,5.63928 -0.125921,2.87916 -0.308186,3.68012 -1.292311,5.67917 -2.762232,5.61089 -10.935737,11.42981 -18.22471,12.97463 -2.831113,0.60003 -3.877769,0.60348 -6.494054,0.0214 z"
       id="path4666"
       inkscape:connector-curvature="0"
       transform="matrix(0.26458333,0,0,0.26458333,0,244.08334)" />
    <path
       style="opacity:1;fill:#6e7b8a;fill-opacity:1;stroke-width:0.35714287;stroke:#000000;stroke-opacity:0"
       d="m 60.887264,125.17154 c -4.678173,-1.28468 -8.937357,-4.20164 -10.327231,-7.07273 -1.962637,-4.05427 0.177394,-9.39608 4.662033,-11.63709 6.232048,-3.11419 13.18813,-2.64349 16.590599,1.12263 3.539111,3.91738 3.493618,8.67978 -0.132495,13.8701 -2.523409,3.61193 -6.361864,4.9339 -10.792906,3.71709 z"
       id="path4668"
       inkscape:connector-curvature="0"
       transform="matrix(0.26458333,0,0,0.26458333,0,244.08334)" />
    <path
       style="opacity:1;fill:#6e7b8a;fill-opacity:1;stroke-width:0.35714287;stroke:#000000;stroke-opacity:0"
       d="M 26.057461,104.64847 C 18.837868,103.58722 13.02739,99.879704 8.7788288,93.623421 6.1326133,89.726696 5.3565493,87.692033 5.3539466,84.64416 5.351979,82.340007 5.4998032,81.698111 6.411474,80.052066 c 1.3795539,-2.49082 5.243132,-6.043392 8.345317,-7.673543 5.108272,-2.684322 13.083815,-3.640639 21.666187,-2.597913 14.400807,1.749645 23.164757,6.224258 26.663414,13.61355 2.251239,4.754699 0.827261,9.182659 -4.158453,12.93099 -7.831758,5.88803 -23.113371,9.75757 -32.870478,8.32332 z"
       id="path4670"
       inkscape:connector-curvature="0"
       transform="matrix(0.26458333,0,0,0.26458333,0,244.08334)" />
    <path
       style="opacity:1;fill:#6e7b8a;fill-opacity:1;stroke-width:0.35714287;stroke:#000000;stroke-opacity:0"
       d="m 91.643768,195.69744 c -8.024054,-2.21179 -14.725825,-6.89519 -17.27234,-12.07042 -1.038332,-2.11018 -1.162666,-2.6906 -1.162079,-5.42492 6.09e-4,-2.84014 0.102023,-3.26745 1.400076,-5.89922 3.562841,-7.22358 11.271328,-11.23298 21.813553,-11.34586 4.611532,-0.0494 7.004292,0.44506 10.163322,2.10015 2.98747,1.56521 5.71664,4.58981 7.41627,8.21909 0.88165,1.88262 0.99028,2.51465 0.97786,5.68933 -0.0126,3.23149 -0.12687,3.83625 -1.20005,6.35372 -2.49724,5.85801 -6.09239,10.17301 -9.97342,11.97035 -2.79999,1.2967 -8.272697,1.48018 -12.163192,0.40778 z"
       id="path4672"
       inkscape:connector-curvature="0"
       transform="matrix(0.26458333,0,0,0.26458333,0,244.08334)" />
  </g>
</svg>
